<svg xmlns="http://www.w3.org/2000/svg" width="45" height="20" viewBox="0 0 45 20">
    <g fill="none" fill-rule="evenodd" opacity=".695">
        <g fill="#FFF">
            <path d="M7.165 0c.604.02 1.224.152 1.71.525.864.63 1.23 1.753 1.209 2.79-.008 1.794.002 3.592-.006 5.384-.658.008-1.314.008-1.97.003-.03-1.795.04-3.595-.035-5.387.002-.592-.311-1.186-.908-1.358-.013-.65-.005-1.304 0-1.957M2.7 4.578c-.998.355-1.044 1.967-.075 2.389.805.43 1.919-.227 1.842-1.163.087-.912-.947-1.612-1.767-1.226M0 8.688C.03 5.855-.03 3.024.036.193c.658.02 1.314.012 1.967.02-.023 1.057.01 2.116-.026 3.173.962-.967 2.662-.925 3.61.034C6.9 4.683 6.854 7.09 5.45 8.265c-.962.833-2.626.88-3.456-.167l.01.602C1.337 8.705.666 8.71 0 8.687M14.395 4.543c-1.04.288-1.178 1.92-.219 2.396.8.479 1.993-.167 1.885-1.129.108-.874-.862-1.576-1.666-1.267m-.762-1.7c1.24-.35 2.708-.162 3.665.756 1.278 1.193 1.183 3.533-.237 4.58-1.669 1.262-4.626.85-5.436-1.227-.686-1.628.26-3.69 2.008-4.109M22.044 4.523c-.983.34-1.073 1.905-.155 2.368.795.45 1.952-.134 1.908-1.088.108-.908-.923-1.669-1.753-1.28M20.49 3.155c.96-.68 2.454-.68 3.238.272-.003-.136-.003-.409-.003-.545.661-.005 1.325-.005 1.988 0 0 1.872.005 3.741 0 5.61-.008 1.011-.365 2.094-1.206 2.716-.73.553-1.692.615-2.574.576.003-.612 0-1.219-.003-1.83.468-.021 1.008 0 1.374-.343.406-.396.406-.997.444-1.524-.99.938-2.653.966-3.651.023-1.383-1.307-1.173-3.873.393-4.955" transform="translate(10 4)"/>
        </g>
        <path d="M0 0H45V20H0z"/>
    </g>
</svg>
