<?xml version="1.0" encoding="UTF-8"?>
<svg width="168px" height="168px" viewBox="0 0 168 168" version="1.1" xmlns="http://www.w3.org/2000/svg" xmlns:xlink="http://www.w3.org/1999/xlink">
    <!-- Generator: sketchtool 63.1 (101010) - https://sketch.com -->
    <title>C2A2A882-5976-4BBA-8294-5C7C2EBC26E9</title>
    <desc>Created with sketchtool.</desc>
    <g id="03.-인재채용" stroke="none" stroke-width="1" fill="none" fill-rule="evenodd">
        <g id="03_1920px" transform="translate(-724.000000, -5404.000000)">
            <g id="img_sub03_process_step02" transform="translate(724.000000, 5404.000000)">
                <g transform="translate(0.988235, 0.988235)" id="Group-5">
                    <g>
                        <circle id="Oval" stroke="#D6D6D6" fill="#FFFFFF" cx="83.0117647" cy="83.0117647" r="83.0117647"></circle>
                        <g id="Group-11" transform="translate(50.400000, 55.341176)">
                            <path d="M7.37263059,40.6285271 C7.37263059,42.1557348 9.03084547,43.1059274 10.3484506,42.3337357 L22.6150502,35.1448094 L35.9504188,35.1448094 C41.1355646,35.1448094 45.3386541,30.942107 45.3386541,25.7565741 L45.3386541,7.41196235 C45.3386541,2.22642952 41.1355646,-1.97627294 35.9504188,-1.97627294 L7.41216,-1.97627294 C2.22632661,-1.97627294 -1.97607529,2.22612897 -1.97607529,7.41196235 L-1.97607529,25.7565741 C-1.97607529,30.9292247 2.20498802,35.1234373 7.37263059,35.144728 L7.37263059,40.6285271 Z M11.3255718,33.1683388 C11.3255718,32.0767643 10.4406757,31.1918682 9.34910118,31.1918682 L7.41216,31.1918682 C4.40947574,31.1918682 1.97686588,28.7592584 1.97686588,25.7565741 L1.97686588,7.41196235 C1.97686588,4.40927809 4.40947574,1.97666824 7.41216,1.97666824 L35.9504188,1.97666824 C38.9524969,1.97666824 41.3857129,4.40966015 41.3857129,7.41196235 L41.3857129,25.7565741 C41.3857129,28.7588763 38.9524969,31.1918682 35.9504188,31.1918682 L22.07856,31.1918682 C21.7272558,31.1918682 21.3822998,31.2855026 21.0792105,31.4631301 L11.3255718,37.1793183 L11.3255718,33.1683388 Z" id="Stroke-1" fill="#535353" fill-rule="nonzero"></path>
                            <path d="M44.86662,46.3725372 C44.5635308,46.1949096 44.2185748,46.1012753 43.8672706,46.1012753 L29.9954118,46.1012753 C28.051162,46.1012753 26.2868997,45.072736 25.3133665,43.4275694 C24.7574627,42.4881515 23.545265,42.177252 22.6058471,42.7331558 C21.6664292,43.2890596 21.3555296,44.5012574 21.9114335,45.4406753 C23.5892576,48.2760182 26.6394166,50.0542165 29.9954118,50.0542165 L43.3307804,50.0542165 L55.59738,57.2431428 C56.9149851,58.0153345 58.5732,57.0651418 58.5732,55.5379341 L58.5732,50.054139 C63.7403184,50.0333702 67.9228941,45.8379732 67.9228941,40.6659812 L67.9228941,22.3203812 C67.9228941,17.135536 63.719504,12.9321459 58.5346588,12.9321459 L55.0293882,12.9321459 C53.9378137,12.9321459 53.0529176,13.8170419 53.0529176,14.9086165 C53.0529176,16.000191 53.9378137,16.8850871 55.0293882,16.8850871 L58.5346588,16.8850871 C61.5363548,16.8850871 63.9699529,19.3186852 63.9699529,22.3203812 L63.9699529,40.6659812 C63.9699529,43.6676772 61.5363548,46.1012753 58.5346588,46.1012753 L56.5967294,46.1012753 C55.5051548,46.1012753 54.6202588,46.9861713 54.6202588,48.0777459 L54.6202588,52.0887253 L44.86662,46.3725372 Z" id="Stroke-3" fill="#249FEB" fill-rule="nonzero"></path>
                            <path d="M33.6207529,16.9247153 C33.6207529,18.28848 32.5149176,19.3953035 31.1501647,19.3953035 C29.7854118,19.3953035 28.6795765,18.28848 28.6795765,16.9247153 C28.6795765,15.5599624 29.7854118,14.4541271 31.1501647,14.4541271 C32.5149176,14.4541271 33.6207529,15.5599624 33.6207529,16.9247153" id="Fill-5" fill="#535353"></path>
                            <path d="M24.15336,16.9247153 C24.15336,18.28848 23.0465365,19.3953035 21.6827718,19.3953035 C20.3180188,19.3953035 19.2121835,18.28848 19.2121835,16.9247153 C19.2121835,15.5599624 20.3180188,14.4541271 21.6827718,14.4541271 C23.0465365,14.4541271 24.15336,15.5599624 24.15336,16.9247153" id="Fill-7" fill="#535353"></path>
                            <path d="M14.6854729,16.9247153 C14.6854729,18.28848 13.5796376,19.3953035 12.2148847,19.3953035 C10.85112,19.3953035 9.74429647,18.28848 9.74429647,16.9247153 C9.74429647,15.5599624 10.85112,14.4541271 12.2148847,14.4541271 C13.5796376,14.4541271 14.6854729,15.5599624 14.6854729,16.9247153" id="Fill-9" fill="#535353"></path>
                        </g>
                    </g>
                </g>
            </g>
        </g>
    </g>
</svg>