<svg xmlns="http://www.w3.org/2000/svg" xmlns:xlink="http://www.w3.org/1999/xlink" width="150" height="150" viewBox="0 0 150 150">
    <defs>
        <path id="prefix__a" d="M0.884 0.211L4.644 0.211 4.644 13.242 0.884 13.242z"/>
    </defs>
    <g fill="none" fill-rule="evenodd">
        <g>
            <path fill="#249FEB" d="M19.427 102.55h-7.669c-1.038 0-1.88.841-1.88 1.88 0 1.04.842 1.88 1.88 1.88h7.669c1.038 0 1.88-.84 1.88-1.88 0-1.039-.842-1.88-1.88-1.88M33.27 102.55h-7.668c-1.04 0-1.88.841-1.88 1.88 0 1.04.84 1.88 1.88 1.88h7.667c1.04 0 1.88-.84 1.88-1.88 0-1.039-.84-1.88-1.88-1.88M87.248 102.55H79.58c-1.039 0-1.88.841-1.88 1.88 0 1.04.841 1.88 1.88 1.88h7.668c1.039 0 1.88-.84 1.88-1.88 0-1.039-.841-1.88-1.88-1.88M73.405 102.55h-7.668c-1.039 0-1.88.841-1.88 1.88 0 1.04.841 1.88 1.88 1.88h7.668c1.039 0 1.88-.84 1.88-1.88 0-1.039-.841-1.88-1.88-1.88" transform="translate(25 21)"/>
            <path fill="#535353" d="M95.246 60.927c-.45-.213-.864-.503-1.227-.865-.829-.829-1.285-1.93-1.285-3.101v-4.253c0-1.875-1.045-3.557-2.725-4.39l-4.251-2.11-.024-3.558 5.818 2.998c2.279 1.172 3.693 3.492 3.693 6.05v9.229zM83.284 96.065h-1.108l-10.402-16.17c-.038-.06-.08-.117-.124-.171-.212-.26-.299-.595-.244-.919l4.098-8.354c.46-.933.074-2.059-.86-2.517-.93-.457-2.058-.072-2.516.86l-4.19 8.542c-.049.1-.42.832-.42.832l-.035.05c-.64.883-.807 2-.458 3.022l3.334 14.824H69.34l-7.537-18.316c-.035-.09-.08-.177-.13-.26-.469-.774-.351-1.766.285-2.412.066-.068.126-.138.181-.213l9.607-13.187 9.867.133-3.21 13.707c-.378.966-.428 2.037-.14 3.036l5.02 17.513zm-28.88-65.346l-.031-.016c-1.826-.89-2.999-2.78-2.99-4.81V21.967l3.31 5.045c.186.282.445.51.75.66L77.927 38.63l2.997 1.544c.643.522 1.04 1.317 1.046 2.16l.037 5.05v.075l.078 10.594-9.45-.127-.407-16.988c-.017-.69-.41-1.316-1.024-1.63l-16.8-8.589zm20.93.601l1.422-4.19c.267-.785 1.004-1.28 1.79-1.28.2 0 .404.032.603.099l1.665.563c.477.162.863.5 1.086.953.224.452.258.964.096 1.442l-1.42 4.19c-.336.985-1.41 1.514-2.394 1.18l-1.665-.562c-.478-.163-.864-.501-1.086-.953-.225-.453-.258-.965-.097-1.442zM13.248 46.207l-4.249 2.11c-1.683.834-2.726 2.516-2.726 4.391v4.253c0 1.171-.457 2.272-1.284 3.1-.363.361-.778.653-1.228.866v-9.228c0-2.56 1.415-4.879 3.692-6.051l5.82-2.998-.025 3.557zm23.799 28.869c.637.647.754 1.638.286 2.413-.05.082-.094.17-.13.258l-7.537 18.317h-1.02l3.336-14.824c.349-1.022.181-2.14-.46-3.023-.01-.016-.022-.033-.035-.049 0 0-.37-.732-.418-.832l-4.192-8.542c-.458-.933-1.584-1.318-2.517-.86-.932.458-1.316 1.584-.859 2.517l4.1 8.354v.001c.053.324-.034.659-.244.918-.045.054-.087.112-.125.17l-10.403 16.17h-1.106l5.02-17.512c.288-1 .236-2.07-.139-3.036l-3.212-13.707 9.868-.133 9.607 13.187c.055.075.115.145.18.213zM17.106 27.465c.223-.452.61-.791 1.088-.953l1.663-.562c.2-.069.403-.1.604-.1.787 0 1.523.496 1.79 1.28l1.42 4.19c.163.476.13.99-.094 1.442-.224.452-.61.79-1.088.953l-1.663.563c-.986.334-2.06-.196-2.393-1.182l-1.422-4.189c-.162-.478-.128-.99.095-1.442zm76.168 14.839l-10.362-5.337c-.126-.088-.255-.172-.387-.251.715-.63 1.283-1.446 1.61-2.41l1.422-4.19c.484-1.43.383-2.962-.284-4.316-.669-1.354-1.824-2.366-3.254-2.85l-1.665-.563c-2.947-.998-6.16.588-7.16 3.534l-1.421 4.19c-.135.396-.22.8-.263 1.207l-13.957-6.8-3.222-4.916c-.893-1.361-2.54-1.96-4.102-1.496-.256.077-.498.182-.726.307-.227-.125-.47-.23-.727-.307-1.56-.464-3.207.135-4.1 1.496l-3.224 4.915-13.955 6.801c-.045-.406-.13-.81-.263-1.207l-1.422-4.19c-1-2.947-4.212-4.532-7.16-3.534l-1.666.563c-1.428.484-2.584 1.496-3.253 2.85-.668 1.354-.769 2.887-.284 4.316l1.422 4.19c.328.964.895 1.78 1.612 2.411-.13.077-.257.16-.38.245l-10.371 5.34C2.196 44.126 0 47.726 0 51.7v11.528c0 1.039.841 1.881 1.88 1.881 2.174 0 4.221-.847 5.766-2.386 1.54-1.538 2.387-3.584 2.387-5.761v-4.253c0-.435.243-.827.637-1.021l2.547-1.266-.068 9.524v.027l-.001.012.005.102c.003.02.003.04.005.06.004.047.013.093.02.138l.007.045.013.058 3.778 16.132c.027.111.063.219.108.324.093.211.108.45.045.672l-5.482 19.123c-.215.749-.062 1.568.407 2.192.47.623 1.217.996 1.997.996h3.468c.854 0 1.64-.43 2.102-1.15l7.049-10.954-2.04 9.064c-.164.743.017 1.51.494 2.105.477.593 1.187.934 1.949.934h3.436c1.018 0 1.927-.608 2.315-1.55L40.631 79.3c1.24-2.183.918-4.918-.797-6.754l-9.732-13.354.086-3.559c.025-1.038-.796-1.899-1.835-1.925h-.045c-1.018 0-1.855.813-1.88 1.835l-.056 2.383-9.45.127L17 47.458c.002-.022.001-.044.001-.067l.036-5.057c.008-.843.403-1.638 1.052-2.163l2.987-1.539 22.49-10.96c.305-.15.563-.378.75-.66l3.308-5.045v3.926c.01 2.03-1.163 3.92-2.99 4.81l-.03.016-16.8 8.59c-.615.314-1.008.94-1.024 1.629l-.156 6.538c-.026 1.038.796 1.9 1.835 1.925 1.038.017 1.9-.797 1.924-1.835l.13-5.419L46.3 34.076c1.28-.626 2.366-1.544 3.205-2.644.84 1.1 1.925 2.018 3.205 2.644l15.787 8.072.408 17.045-9.73 13.354c-1.716 1.836-2.038 4.571-.797 6.754l7.808 18.977c.388.94 1.296 1.548 2.314 1.548h3.436c.762 0 1.472-.34 1.949-.934.477-.595.657-1.362.492-2.114l-2.038-9.056 7.05 10.957c.461.718 1.248 1.148 2.102 1.148h3.467c.781 0 1.527-.372 1.997-.996.47-.624.621-1.443.407-2.193l-5.483-19.121c-.063-.223-.047-.462.046-.673.045-.105.08-.213.108-.324l3.778-16.131v-.001c.004-.019.009-.037.012-.056.004-.017.005-.036.009-.054.007-.043.014-.085.018-.127l.005-.073c.003-.03.006-.061.006-.093v-.039l-.07-9.524 2.55 1.266c.39.193.634.584.634 1.02v4.252c0 2.179.848 4.224 2.39 5.765 1.543 1.535 3.59 2.383 5.762 2.383 1.04 0 1.88-.841 1.88-1.88v-11.53c0-3.972-2.196-7.572-5.732-9.393z" transform="translate(25 21)"/>
            <g transform="translate(25 21) translate(46.74 .876)">
                <mask id="prefix__b" fill="#fff">
                    <use xlink:href="#prefix__a"/>
                </mask>
                <path fill="#249FEB" d="M2.764 13.242c1.038 0 1.88-.841 1.88-1.88v-9.27c0-1.039-.842-1.881-1.88-1.881-1.039 0-1.88.842-1.88 1.88v9.27c0 1.04.841 1.881 1.88 1.881" mask="url(#prefix__b)"/>
            </g>
            <path fill="#249FEB" d="M55.657 16.007c.48 0 .96-.183 1.328-.55l5.027-5.021c.734-.735.735-1.925.001-2.66-.733-.733-1.925-.735-2.658-.002l-5.028 5.023c-.734.734-.735 1.924 0 2.659.366.367.848.55 1.33.55M42.021 15.457c.367.366.848.55 1.33.55.48 0 .962-.184 1.329-.551.734-.735.734-1.925-.001-2.659L39.65 7.775c-.733-.733-1.925-.733-2.657.001-.735.735-.734 1.926 0 2.659l5.027 5.022z" transform="translate(25 21)"/>
        </g>
        <path d="M0 0H150V150H0z"/>
    </g>
</svg>
