<svg xmlns="http://www.w3.org/2000/svg" width="636" height="636" viewBox="0 0 636 636">
    <g fill="none" fill-rule="evenodd">
        <circle cx="318" cy="318" r="318" fill="#000" opacity=".375"/>
        <path fill="#FFF" fill-rule="nonzero" d="M141.61 249.04V228.8h11.76v-1.68h-11.76v-17.76h-1.84v25.92c-4.88 3.92-12.16 5.36-20.48 5.36H88.73V212h30.16v-1.68h-32v32h32.4c8.48 0 15.84-1.36 20.48-5.2v11.92h1.84zm-24.72 32.08c9.52 0 16.88-1.68 21.44-4.8 3.28-2.32 5.2-5.28 5.2-8.88 0-3.6-1.92-6.64-5.2-8.96-4.56-3.04-11.92-4.72-21.44-4.72-9.52 0-16.88 1.68-21.36 4.72-3.36 2.32-5.28 5.36-5.28 8.96 0 3.6 1.92 6.56 5.28 8.88 4.48 3.12 11.84 4.8 21.36 4.8zm0-1.68c-9.2 0-16.24-1.76-20.4-4.56-2.88-2-4.32-4.56-4.32-7.44 0-2.96 1.44-5.52 4.32-7.44 4.16-2.88 11.2-4.56 20.4-4.56 9.28 0 16.24 1.68 20.4 4.56 2.88 1.92 4.32 4.48 4.32 7.44 0 2.88-1.44 5.44-4.32 7.44-4.16 2.8-11.12 4.56-20.4 4.56zm103.1-21.76v-48.32h-1.92v48.32h1.92zm-58.8-8.64c10.32-3.52 17.92-11.52 19.6-19.28 2.4 7.68 9.92 15.04 19.76 18.4v-1.92c-8.88-2.96-18.72-11.12-18.72-22.8v-13.52h-1.92v13.52c0 11.68-9.52 20.64-18.72 23.68v1.92zm60.24 30.72V278h-50.64v-19.2h-1.92v20.96h52.56zm74.38-.32v-70.08h-1.92v57.76c-4.88 4.16-12.16 6.24-20.48 6.24h-34.8v1.68h34.8c8.48 0 15.92-2 20.48-6v10.4h1.92zm-35.92-27.76c5.12 0 9.36-1.6 12.4-4.48 4.08-3.68 6.16-9.44 6.16-16.4 0-7.04-2.08-12.8-6.16-16.48-3.04-2.8-7.28-4.4-12.4-4.4s-9.28 1.6-12.4 4.4c-4 3.68-6.16 9.44-6.16 16.48 0 6.96 2.16 12.72 6.16 16.4 3.12 2.88 7.28 4.48 12.4 4.48zm0-1.76c-4.72 0-8.48-1.44-11.2-4-3.6-3.36-5.44-8.72-5.44-15.12 0-6.4 1.84-11.84 5.44-15.2 2.72-2.56 6.48-4 11.2-4 4.72 0 8.48 1.44 11.2 4 3.6 3.36 5.52 8.8 5.52 15.2 0 6.4-1.92 11.76-5.52 15.12-2.72 2.56-6.48 4-11.2 4zm95.88-9.6c5.04 0 9.52-1.44 12.64-4.16 3.12-2.64 5.04-6.48 5.04-11.52 0-5.04-1.92-8.96-5.04-11.6-3.12-2.72-7.6-4.08-12.64-4.08-5.04 0-9.52 1.36-12.64 4.08-3.12 2.64-5.12 6.56-5.12 11.6s2 8.88 5.12 11.52c3.12 2.72 7.6 4.16 12.64 4.16zm39.2 1.52v-32.48h-1.92v32.48h1.92zm-39.2-3.28c-4.56 0-8.64-1.28-11.44-3.76-2.8-2.32-4.4-5.76-4.4-10.16 0-4.48 1.6-7.92 4.4-10.24 2.8-2.48 6.88-3.76 11.44-3.76s8.64 1.28 11.44 3.76c2.8 2.32 4.4 5.76 4.4 10.24 0 4.4-1.6 7.84-4.4 10.16-2.8 2.48-6.88 3.76-11.44 3.76zm40.16 41.6v-1.68h-50.16v-12.4h49.2v-15.76h-51.12V252h49.2v12.32h-49.2v15.84h52.08zm73.26-31.12V228.8h11.76v-1.68h-11.76v-17.76h-1.84v39.68h1.84zm-57.6-3.44c10.4-3.52 17.92-11.52 19.6-19.28 2.4 7.68 9.92 15.04 19.76 18.4v-1.84c-8.88-3.04-18.72-11.12-18.72-22.88v-10.08h-1.84V220c0 11.76-9.52 20.64-18.8 23.68v1.92zm32.88 35.52c9.52 0 16.88-1.68 21.44-4.8 3.28-2.32 5.2-5.28 5.2-8.88 0-3.6-1.92-6.64-5.2-8.96-4.56-3.04-11.92-4.72-21.44-4.72-9.52 0-16.88 1.68-21.36 4.72-3.36 2.32-5.28 5.36-5.28 8.96 0 3.6 1.92 6.56 5.28 8.88 4.48 3.12 11.84 4.8 21.36 4.8zm0-1.68c-9.2 0-16.24-1.76-20.4-4.56-2.88-2-4.32-4.56-4.32-7.44 0-2.96 1.44-5.52 4.32-7.44 4.16-2.88 11.2-4.56 20.4-4.56 9.28 0 16.24 1.68 20.4 4.56 2.88 1.92 4.32 4.48 4.32 7.44 0 2.88-1.44 5.44-4.32 7.44-4.16 2.8-11.12 4.56-20.4 4.56zm59.98-4.24c2.88 0 5.2-.8 7.12-2.56 4.64-4.48 6.4-14.64 6.4-30.32s-1.76-25.84-6.4-30.32c-1.92-1.76-4.24-2.64-7.12-2.64-2.96 0-5.28.88-7.12 2.64-4.72 4.48-6.4 14.64-6.4 30.32s1.68 25.84 6.4 30.32c1.84 1.76 4.16 2.56 7.12 2.56zm43.84 4.24v-70.08h-1.92v70.08h1.92zm-15.36-.96v-68.56h-1.92v30h-10.56v1.76h10.56v36.8h1.92zm-28.48-4.88c-2.4 0-4.4-.88-5.92-2.4-4.32-4.32-5.76-14.08-5.76-28.88l.001-.66c.043-14.43 1.503-23.963 5.759-28.14 1.52-1.6 3.52-2.4 5.92-2.4s4.32.8 5.92 2.4c4.24 4.24 5.68 14 5.68 28.8s-1.44 24.56-5.68 28.88c-1.6 1.52-3.52 2.4-5.92 2.4zm-359.8 82.56v-1.68H91.69v-15.44h51.12v-1.68H91.69V322h52.08v-1.68H89.85v35.84h54.8zm-26.96 34.56v-18.24h30.16v-1.76H85.77v1.76h30v18.24h1.92zm100.22-1.28v-37.2h12.24v-1.68h-12.24v-31.2h-1.84v70.08h1.84zm-17.28-5.12v-1.84c-8.48-4.4-18.16-15.52-18.16-31.52v-28.48h17.52v-1.76h-36.64v1.76h17.28v28.48c0 16.08-10 27.6-18.16 31.52v1.84c9.12-4.32 17.12-14.24 19.12-24.72 2.08 10.4 9.44 19.92 19.04 24.72zm95.66-39.52v-1.68h-51.36v-9.92h50.88v-12.88h-52.8V322h50.88v9.44h-50.88v13.36h53.28zm4.64 11.2v-1.68h-63.04V356h63.04zm-3.28 34.16v-1.68h-52.72v-9.84h50.88v-12.72h-52.8v1.76h50.88v9.2h-50.88v13.28h54.64zm96.84-.72v-70.08h-1.92v30.48h-23.52v1.76h23.52v37.84h1.92zm-31.6-5.28c7.28 0 14.8-.96 19.04-3.76v-1.68c-4.4 2.72-11.92 3.76-19.04 3.76h-20.96v-60h28.72v-1.76h-30.64v63.44h22.88zm89.74-53.04v-1.76h-19.28v-12.24h-1.92v12.24h-19.2v1.76h40.4zm16.56 58.32v-37.2h12.24v-1.68h-12.24v-31.2h-1.84v70.08h1.84zm-36.8-4.08c4.32 0 8.32-1.36 11.28-4.4 3.44-3.52 5.68-9.2 5.68-17.52 0-8.24-2.24-13.92-5.68-17.44-2.96-3.04-6.96-4.48-11.28-4.48-4.24 0-8.32 1.44-11.28 4.48-3.44 3.52-5.68 9.2-5.68 17.44 0 8.32 2.24 14 5.68 17.52 2.96 3.04 7.04 4.4 11.28 4.4zm0-1.68c-3.84 0-7.44-1.28-10.08-4.16-3.12-3.2-4.96-8.4-4.96-16.08 0-7.6 1.84-12.8 4.96-16.08 2.64-2.8 6.24-4.08 10.08-4.08s7.44 1.28 10.08 4.08c3.12 3.28 5.04 8.48 5.04 16.08 0 7.68-1.92 12.88-5.04 16.08-2.64 2.88-6.24 4.16-10.08 4.16zm113.1 5.76v-37.2h12.24v-1.68h-12.24v-31.2h-1.84v55.28c-4.96 4.96-13.36 7.84-22.16 7.84h-27.84v-60h29.6v-1.76h-31.52v63.44h29.76c8.96 0 17.68-2.8 22.16-7.68v12.96h1.84z"/>
        <path fill="#6BC6FF" fill-rule="nonzero" d="M102.004 441.456v-9.234h-1.296v9.234h1.296zm-11.682-3.222c1.89-.468 3.402-1.584 4.068-3.042.684 1.368 2.178 2.376 4.05 2.826l.576-1.026c-2.268-.504-3.96-1.854-3.96-3.546v-.846h-1.35v.846c0 1.746-1.674 3.222-3.96 3.78l.576 1.008zm4.86 4.536v-2.502c1.494-.072 3.024-.234 4.5-.468l-.108-.954c-3.528.468-7.542.468-10.566.468l.18 1.098c1.404 0 3.006 0 4.698-.072v2.43h1.296zm6.822 5.31v-5.796h-1.278v1.782h-7.884v-1.782h-1.314v5.796h10.476zm-1.278-1.08h-7.884v-1.89h7.884V447zm18.414-4.122c.594-3.204.594-5.418.594-7.38v-1.62h-11.178v1.098h9.864v.522c0 1.908 0 4.158-.594 7.2l1.314.18zm2.394 3.114v-1.098h-7.488v-5.796h-1.314v5.796h-5.742v1.098h14.544zm22.104-1.782v-12.006h-1.314v3.096h-2.826v1.098h2.826v1.944h-2.826v1.098h2.826v4.77h1.314zm-12.996-2.52c2.61 0 6.282-.054 9.396-.54l-.09-.972c-.702.09-1.458.144-2.214.198v-5.76h1.656v-1.08h-8.46v1.08h1.656v5.94c-.738.018-1.458.018-2.088.018l.144 1.116zm3.222-1.152v-5.922h2.592v5.832c-.864.054-1.746.072-2.592.09zm10.206 7.416v-1.098h-9.36v-3.654h-1.314v4.752h10.674zm17.532.36v-16.128h-1.314v16.128h1.314zm-10.89-3.906c2.718 0 5.148-.126 8.118-.576l-.126-1.116c-2.916.468-5.328.594-7.992.594v-3.924h6.03v-5.67h-7.398v1.098h6.084v3.492h-6.048v6.102h1.332zm25.29-9.09v-1.08h-4.104v-1.998h-1.314v1.998h-4.086v1.08h9.504zm2.88 8.982v-5.598h2.412v-1.098h-2.412v-5.364h-1.314v12.06h1.314zm-7.65-2.088c2.286 0 3.834-1.188 3.834-2.97 0-1.818-1.548-3.006-3.834-3.006s-3.834 1.188-3.834 3.006c0 1.782 1.548 2.97 3.834 2.97zm0-1.044c-1.548 0-2.592-.774-2.592-1.926 0-1.17 1.044-1.962 2.592-1.962 1.53 0 2.592.792 2.592 1.962 0 1.152-1.062 1.926-2.592 1.926zm8.388 6.786v-1.098h-9.378v-3.528h-1.314v4.626h10.692zm22.59.36v-8.424h2.7v-1.116h-2.7v-6.552h-1.314v16.092h1.314zm-11.808-3.114c1.8-.936 3.438-3.042 4.176-5.418.72 2.196 2.286 4.122 4.068 5.022l.738-1.044c-2.25-1.08-4.176-3.96-4.176-6.534v-2.25h3.636v-1.098h-8.64v1.098h3.708v2.25c0 2.754-2.034 5.814-4.284 6.93l.774 1.044zm29.934-1.098v-5.814h2.412v-1.098h-2.412v-5.004h-1.314v11.916h1.314zm-11.79-2.25c1.908-.738 3.384-2.25 4.05-4.194.72 1.728 2.142 3.114 3.96 3.78l.648-1.062c-2.286-.81-3.978-2.88-3.978-5.13v-2.07h-1.314v2.034c0 2.538-1.656 4.698-4.05 5.58l.684 1.062zm12.528 6.102v-1.098h-9.324v-3.888h-1.314v4.986h10.638zm17.262-3.6v-5.742h2.394v-1.098h-2.394v-5.31h-1.296v12.15h1.296zm-4.05-5.274c.414-2.142.414-3.762.414-4.788v-.828h-7.92v1.098h6.642c0 1.026-.036 2.43-.432 4.374l1.296.144zm-8.334 2.628c2.844 0 6.696-.09 10.044-.648l-.09-.972c-1.674.234-3.51.36-5.31.432v-3.474H229.3v3.528c-1.242.018-2.43.036-3.492.036l.144 1.098zm12.906 6.246v-1.098h-9.27v-3.636h-1.314v4.734h10.584zm18.198.36v-16.128h-1.314v16.128h1.314zm-10.89-3.906c2.718 0 5.148-.126 8.118-.576l-.126-1.116c-2.916.468-5.328.594-7.992.594v-3.924h6.03v-5.67h-7.398v1.098h6.084v3.492h-6.048v6.102h1.332zm16.074 5.922c1.494-.666 2.484-1.962 2.484-3.618 0-1.134-.504-1.818-1.314-1.818-.594 0-1.134.396-1.134 1.062 0 .702.522 1.08 1.116 1.08.072 0 .144 0 .216-.018-.018 1.098-.684 1.944-1.746 2.448l.378.864zm25.992-4.122v-1.098h-6.66v-4.014h4.842v-7.524h-11.016v7.524h4.86v4.014h-6.624v1.098h14.598zm-3.078-6.174h-8.496v-5.4h8.496v5.4zm19.224-.684v-1.098H295v-3.996h9.144v-1.098h-10.476v6.192h10.71zm-4.824 8.91v-5.634h6.678v-1.098h-14.598v1.098h6.606v5.634h1.314zm23.13.072v-16.128h-1.296v16.128h1.296zm-7.812-7.434c2.502 0 4.284-1.512 4.284-3.744s-1.782-3.744-4.284-3.744-4.284 1.512-4.284 3.744 1.782 3.744 4.284 3.744zm0-1.116c-1.746 0-3.024-1.098-3.024-2.628s1.278-2.61 3.024-2.61 3.006 1.08 3.006 2.61c0 1.53-1.26 2.628-3.006 2.628zm5.526 4.266l-.108-.972c-3.51.558-7.596.558-10.548.558l.198 1.116c2.898 0 6.84-.018 10.458-.702zm25.866-3.546v-8.298h-1.314v8.298h1.314zm-8.658-.594c2.412 0 4.14-1.44 4.14-3.546 0-2.088-1.728-3.546-4.14-3.546-2.376 0-4.122 1.458-4.122 3.546 0 2.106 1.746 3.546 4.122 3.546zm0-1.08c-1.638 0-2.844-1.026-2.844-2.466 0-1.44 1.206-2.466 2.844-2.466 1.656 0 2.862 1.026 2.862 2.466 0 1.44-1.206 2.466-2.862 2.466zm9.234 9.252v-1.062h-9.612v-1.908h9.036v-3.798h-10.368v1.062h9.072v1.746h-9.036v3.96h10.908zm16.704-6.066v-4.464h2.412v-1.098h-2.412v-4.23h-1.314v9.792h1.314zm-11.808-.648c1.89-.756 3.366-2.25 4.032-4.212.702 1.728 2.124 3.078 3.888 3.762l.702-1.044c-2.268-.792-3.96-2.862-3.96-5.058v-1.782h-1.314v1.692c0 2.52-1.656 4.698-4.032 5.58l.684 1.062zm6.714 6.912c3.276 0 5.256-1.062 5.256-2.898s-1.98-2.898-5.256-2.898c-3.276 0-5.274 1.062-5.274 2.898s1.998 2.898 5.274 2.898zm0-1.044c-2.448 0-3.978-.684-3.978-1.854 0-1.152 1.53-1.836 3.978-1.836 2.448 0 3.96.684 3.96 1.836 0 1.17-1.512 1.854-3.96 1.854zm17.91-5.148c3.348 0 5.814-1.746 5.814-4.41s-2.466-4.41-5.814-4.41-5.832 1.746-5.832 4.41 2.484 4.41 5.832 4.41zm0-1.098c-2.61 0-4.572-1.35-4.572-3.312 0-1.962 1.962-3.312 4.572-3.312 2.61 0 4.572 1.35 4.572 3.312 0 1.962-1.962 3.312-4.572 3.312zm7.344 5.148v-1.098H369.07v1.098h14.634zm17.982.144v-1.098h-6.66v-3.132h5.184v-1.08h-9.972v-2.754h9.594v-4.788h-10.926v1.098h9.648v2.628h-9.612v4.896h4.77v3.132h-6.624v1.098h14.598zm21.186 2.034v-8.424h2.7v-1.116h-2.7v-6.552h-1.314v16.092h1.314zm-11.808-3.114c1.8-.936 3.438-3.042 4.176-5.418.72 2.196 2.286 4.122 4.068 5.022l.738-1.044c-2.25-1.08-4.176-3.96-4.176-6.534v-2.25h3.636v-1.098h-8.64v1.098h3.708v2.25c0 2.754-2.034 5.814-4.284 6.93l.774 1.044zm30.654 3.114v-16.128h-1.314v16.128h1.314zm-10.89-3.906c2.718 0 5.148-.126 8.118-.576l-.126-1.116c-2.916.468-5.328.594-7.992.594v-3.924h6.03v-5.67h-7.398v1.098h6.084v3.492h-6.048v6.102h1.332zm28.17-3.384v-3.942h2.412v-1.098h-2.412v-3.78h-1.314v8.82h1.314zm-11.88.18c1.944-.684 3.456-2.088 4.14-3.906.684 1.638 2.106 2.934 3.96 3.564l.612-1.044c-2.304-.756-3.942-2.646-3.942-4.77v-.648h3.618v-1.098h-8.604v1.098h3.672v.666c0 2.286-1.728 4.284-4.086 5.094l.63 1.044zm11.88 6.876v-6.264h-1.296v2.034h-7.47v-2.034h-1.296v6.264h10.062zm-1.296-1.08h-7.47v-2.088h7.47V447zm14.112-8.91c3.528 0 5.616-1.008 5.616-2.79 0-1.8-2.088-2.808-5.616-2.808-3.528 0-5.634 1.008-5.634 2.808 0 1.782 2.106 2.79 5.634 2.79zm0-1.008c-2.7 0-4.284-.648-4.284-1.782s1.584-1.8 4.284-1.8c2.682 0 4.284.666 4.284 1.8s-1.602 1.782-4.284 1.782zm7.29 3.222v-1.08H464.56v1.08h14.544zm-1.404 7.812v-1.062h-10.044v-1.746h9.558v-3.528h-10.89v1.008h9.594v1.548h-9.54v3.78H477.7zm23.58-8.64l.522-1.062c-2.754-.432-5.814-2.376-5.814-4.698v-.936h-1.386v.936c0 2.358-3.024 4.266-5.814 4.698l.522 1.062c2.466-.45 4.986-1.818 5.976-3.834 1.044 1.998 3.564 3.402 5.994 3.834zm-5.364 8.838v-5.886h6.642v-1.098h-14.544v1.098h6.588v5.886h1.314zm28.71-6.894v-9.18h-1.314v9.18h1.314zm-8.622-.774c2.43 0 4.176-1.512 4.176-3.726 0-2.232-1.746-3.744-4.176-3.744-2.412 0-4.158 1.512-4.158 3.744 0 2.214 1.746 3.726 4.158 3.726zm0-1.098c-1.674 0-2.88-1.098-2.88-2.628 0-1.548 1.206-2.646 2.88-2.646s2.898 1.098 2.898 2.646c0 1.53-1.224 2.628-2.898 2.628zm3.15 8.676c1.512-.648 2.502-1.908 2.988-3.222.54 1.368 1.692 2.502 3.276 3.078l.666-.99c-2.052-.684-3.294-2.358-3.294-4.032v-.918h-1.278v.918c0 1.26-.81 2.934-2.376 3.888-1.548-.882-2.322-2.43-2.322-3.888v-.918h-1.26v.918c0 1.548-1.278 3.312-3.276 4.032l.648.99c1.548-.594 2.646-1.728 3.222-3.024.468 1.368 1.458 2.556 3.006 3.168zm23.94.09v-16.092h-1.26v16.092h1.26zm-3.348-.828v-14.832h-1.242v6.192h-2.988c.576-1.44.828-2.97.828-4.572h-6.192v1.098h4.896c-.252 3.384-2.034 6.39-5.544 8.496l.774.954c2.232-1.332 3.762-3.006 4.752-4.878h3.474v7.542h1.242z"/>
    </g>
</svg>
