<svg xmlns="http://www.w3.org/2000/svg" width="168" height="168" viewBox="0 0 168 168">
    <g fill="none" fill-rule="evenodd" transform="translate(.988 .988)">
        <circle cx="83.012" cy="83.012" r="83.012" fill="#FFF" stroke="#D6D6D6"/>
        <g fill-rule="nonzero">
            <path fill="#535353" d="M9.356 17.054h24.318c1.092 0 1.977-.885 1.977-1.976 0-1.092-.885-1.977-1.977-1.977H9.356c-1.092 0-1.977.885-1.977 1.977 0 1.091.885 1.976 1.977 1.976zM9.356 26.584h24.318c1.092 0 1.977-.885 1.977-1.976 0-1.092-.885-1.977-1.977-1.977H9.356c-1.092 0-1.977.885-1.977 1.977 0 1.091.885 1.976 1.977 1.976zM9.356 36.114h14.679c1.092 0 1.976-.885 1.976-1.976 0-1.092-.884-1.977-1.976-1.977H9.355c-1.09 0-1.976.885-1.976 1.977 0 1.091.885 1.976 1.977 1.976z" transform="translate(58.306 53.365)"/>
            <g>
                <path fill="#535353" d="M14.833 54.274H7.411c-3.002 0-5.435-2.433-5.435-5.435V8.124c0-3.002 2.433-5.435 5.435-5.435h28.536c3.002 0 5.435 2.433 5.435 5.435v14.113c0 1.092.885 1.977 1.976 1.977 1.092 0 1.977-.885 1.977-1.977V8.124c0-5.186-4.203-9.388-9.388-9.388H7.41c-5.185 0-9.388 4.203-9.388 9.388V48.84c0 5.185 4.203 9.388 9.388 9.388h7.422c1.092 0 1.976-.885 1.976-1.977 0-1.091-.884-1.976-1.976-1.976z" transform="translate(58.306 53.365) translate(0 .276)"/>
                <path fill="#249FEB" d="M26.48 47.64c.077-.38.265-.729.539-1.003l12.816-12.816c2.723-2.723 7.139-2.723 9.861 0 2.723 2.722 2.723 7.137 0 9.86L36.51 56.868c-.269.269-.61.454-.981.534l-8.587 1.85c-1.394.3-2.637-.93-2.353-2.327l1.892-9.284zm2.585 7.11l5.061-1.09 12.775-12.773c1.18-1.18 1.18-3.092 0-4.271-1.179-1.179-3.092-1.179-4.27 0L30.233 49.012l-1.169 5.737z" transform="translate(58.306 53.365) translate(0 .276)"/>
                <path fill="#249FEB" d="M37.644 38.807l7.12 7.12c.772.772 2.024.772 2.796 0 .772-.772.772-2.023 0-2.795l-7.12-7.12c-.772-.772-2.024-.772-2.796 0-.772.772-.772 2.023 0 2.795z" transform="translate(58.306 53.365) translate(0 .276)"/>
            </g>
        </g>
    </g>
</svg>
