<?xml version="1.0" encoding="UTF-8"?>
<svg width="168px" height="168px" viewBox="0 0 168 168" version="1.1" xmlns="http://www.w3.org/2000/svg" xmlns:xlink="http://www.w3.org/1999/xlink">
    <!-- Generator: sketchtool 63.1 (101010) - https://sketch.com -->
    <title>3723FB78-5B3C-4A60-8CE2-A1DABCA6AA9C</title>
    <desc>Created with sketchtool.</desc>
    <g id="03.-인재채용" stroke="none" stroke-width="1" fill="none" fill-rule="evenodd">
        <g id="03_1920px" transform="translate(-1028.000000, -5404.000000)">
            <g id="img_sub03_process_step03" transform="translate(1028.000000, 5404.000000)">
                <g transform="translate(0.988235, 0.988235)" id="Group-6">
                    <g>
                        <circle id="Oval" stroke="#D6D6D6" fill="#FFFFFF" cx="83.0117647" cy="83.0117647" r="83.0117647"></circle>
                        <g id="Group-13" transform="translate(48.423529, 61.270588)" fill-rule="nonzero">
                            <path d="M3.93080471,12.8297647 C3.93080471,17.2566334 7.51852426,20.8443529 11.9453929,20.8443529 C16.3723501,20.8443529 19.9609694,17.2565449 19.9609694,12.8297647 C19.9609694,8.40368143 16.3720588,4.81517647 11.9453929,4.81517647 C7.51881553,4.81517647 3.93080471,8.40359295 3.93080471,12.8297647 Z M7.88374588,12.8297647 C7.88374588,10.586642 9.7020647,8.76811765 11.9453929,8.76811765 C14.1890097,8.76811765 16.0080282,10.5869306 16.0080282,12.8297647 C16.0080282,15.0731957 14.1894011,16.8914118 11.9453929,16.8914118 C9.70167339,16.8914118 7.88374588,15.0734843 7.88374588,12.8297647 Z" id="Stroke-1" fill="#535353"></path>
                            <path d="M7.39496471,36.5830871 L2.96470588,36.5830871 C2.41921768,36.5830871 1.97647059,36.140238 1.97647059,35.5948518 L1.97647059,30.8137694 C1.97647059,25.3078852 6.43990398,20.8444518 11.9457882,20.8444518 C13.0373628,20.8444518 13.9222588,19.9595557 13.9222588,18.8679812 C13.9222588,17.7764066 13.0373628,16.8915106 11.9457882,16.8915106 C4.25675485,16.8915106 -1.97647059,23.124736 -1.97647059,30.8137694 L-1.97647059,35.5948518 C-1.97647059,38.3231834 0.2358648,40.5360282 2.96470588,40.5360282 L7.39496471,40.5360282 C8.48653927,40.5360282 9.37143529,39.6511322 9.37143529,38.5595576 C9.37143529,37.4679831 8.48653927,36.5830871 7.39496471,36.5830871 Z" id="Stroke-3" fill="#535353"></path>
                            <path d="M64.3256188,12.8297647 C64.3256188,17.2566334 60.7378993,20.8443529 56.3110306,20.8443529 C51.8841619,20.8443529 48.2964424,17.2566334 48.2964424,12.8297647 C48.2964424,8.40359295 51.8844532,4.81517647 56.3110306,4.81517647 C60.737608,4.81517647 64.3256188,8.40359295 64.3256188,12.8297647 Z M60.3726776,12.8297647 C60.3726776,10.586642 58.5543588,8.76811765 56.3110306,8.76811765 C54.0677023,8.76811765 52.2493835,10.586642 52.2493835,12.8297647 C52.2493835,15.0734843 54.067311,16.8914118 56.3110306,16.8914118 C58.5547501,16.8914118 60.3726776,15.0734843 60.3726776,12.8297647 Z" id="Stroke-5" fill="#249FEB"></path>
                            <path d="M60.8614588,40.5360282 L65.2917176,40.5360282 C68.0205587,40.5360282 70.2328941,38.3231834 70.2328941,35.5948518 L70.2328941,30.8137694 C70.2328941,23.1249141 63.9998468,16.8915106 56.3116235,16.8915106 C55.220049,16.8915106 54.3351529,17.7764066 54.3351529,18.8679812 C54.3351529,19.9595557 55.220049,20.8444518 56.3116235,20.8444518 C61.8166471,20.8444518 66.2799529,25.3080127 66.2799529,30.8137694 L66.2799529,35.5948518 C66.2799529,36.140238 65.8372058,36.5830871 65.2917176,36.5830871 L60.8614588,36.5830871 C59.7698843,36.5830871 58.8849882,37.4679831 58.8849882,38.5595576 C58.8849882,39.6511322 59.7698843,40.5360282 60.8614588,40.5360282 Z" id="Stroke-7" fill="#249FEB"></path>
                            <path d="M44.4755294,8.37015529 C44.4755294,14.0854939 39.843434,18.7179671 34.1287059,18.7179671 C28.4139777,18.7179671 23.7818824,14.0854939 23.7818824,8.37015529 C23.7818824,2.65561602 28.4141666,-1.97666824 34.1287059,-1.97666824 C39.8432452,-1.97666824 44.4755294,2.65561602 44.4755294,8.37015529 Z M40.5225882,8.37015529 C40.5225882,4.83876515 37.660096,1.97627294 34.1287059,1.97627294 C30.5973157,1.97627294 27.7348235,4.83876515 27.7348235,8.37015529 C27.7348235,11.9024169 30.597199,14.7650259 34.1287059,14.7650259 C37.6602127,14.7650259 40.5225882,11.9024169 40.5225882,8.37015529 Z" id="Stroke-9" fill="#535353"></path>
                            <path d="M34.1285082,14.7647294 C23.8918043,14.7647294 15.5931671,23.0633666 15.5931671,33.3000706 L15.5931671,41.0715529 C15.5931671,43.7998846 17.8055024,46.0127294 20.5343435,46.0127294 L47.7226729,46.0127294 C50.451514,46.0127294 52.6638494,43.7998846 52.6638494,41.0715529 L52.6638494,33.3000706 C52.6638494,23.0633666 44.3652122,14.7647294 34.1285082,14.7647294 Z M34.1285082,18.7176706 C42.1820631,18.7176706 48.7109082,25.2465157 48.7109082,33.3000706 L48.7109082,41.0715529 C48.7109082,41.6169392 48.2681611,42.0597882 47.7226729,42.0597882 L20.5343435,42.0597882 C19.9888553,42.0597882 19.5461082,41.6169392 19.5461082,41.0715529 L19.5461082,33.3000706 C19.5461082,25.2465157 26.0749534,18.7176706 34.1285082,18.7176706 Z" id="Stroke-11" fill="#535353"></path>
                        </g>
                    </g>
                </g>
            </g>
        </g>
    </g>
</svg>