<svg xmlns="http://www.w3.org/2000/svg" xmlns:xlink="http://www.w3.org/1999/xlink" width="150" height="150" viewBox="0 0 150 150">
    <defs>
        <path id="prefix__a" d="M0.312 0.449L86.385 0.449 86.385 49.036 0.312 49.036z"/>
    </defs>
    <g fill="none" fill-rule="evenodd">
        <path d="M0 0H150V150H0z"/>
        <g>
            <g transform="translate(32 32) translate(0 37.344)">
                <mask id="prefix__b" fill="#fff">
                    <use xlink:href="#prefix__a"/>
                </mask>
                <path fill="#535353" d="M81.779 34.212l-2.263-2.263c-.557-.557-1.228-.983-1.963-1.252.412-.754.628-1.598.628-2.47 0-1.38-.538-2.679-1.514-3.655l-8.66-8.659c-.76-.759-.759-1.995 0-2.756.367-.366.856-.569 1.378-.569.52 0 1.01.203 1.378.57l9.453 9.454c3.063 3.063 3.683 7.862 1.563 11.6m-.067 7.578l-2.324 2.323c-.39.389-.907.603-1.46.603-.551 0-1.07-.214-1.458-.603l-4.56-4.559c-.39-.389-.603-.908-.603-1.459 0-.55.213-1.067.601-1.456l2.33-2.33c.389-.387.905-.6 1.456-.6.552 0 1.07.214 1.459.602l3.543 3.544.088.088.033.034.122.121.773.772c.39.39.605.908.605 1.46 0 .55-.215 1.069-.605 1.46m-14.615 3.59c-.13 0-.26-.002-.388-.008-2.429-.097-4.715-1.098-6.436-2.82l-4.067-4.068c.646-.256 1.285-.532 1.906-.823.614-.286 1.235-.6 1.848-.932l2.275 2.274c.974.975 2.273 1.51 3.654 1.51.842 0 1.66-.2 2.394-.584.268.743.7 1.423 1.265 1.989l2.245 2.245c-1.43.797-3.043 1.217-4.696 1.217m.008-13.806l.366.366c.317.316.736.49 1.182.49.446 0 .866-.175 1.182-.49.65-.652.65-1.712-.001-2.363l-.395-.395c1.127-1.265 2.165-2.614 3.094-4.018l1.771 1.77c.346.345.536.803.536 1.292 0 .487-.191.946-.536 1.291l-2.418 2.419-.014.013-2.303 2.303-.009.006-.024.027-2.355 2.355c-.344.344-.803.534-1.291.534-.49 0-.948-.19-1.293-.534l-1.71-1.712c1.489-1.007 2.904-2.134 4.218-3.354M20.81 37.487c-.488 0-.946-.19-1.291-.535l-2.376-2.376-.056-.057-1.083-1.081-1.24-1.241-.01-.01-.006-.005-2.353-2.352c-.345-.345-.535-.803-.535-1.291 0-.488.19-.946.535-1.291l1.697-1.697c1.01 1.484 2.138 2.898 3.362 4.212l-.358.358c-.651.651-.651 1.711 0 2.363.316.315.736.49 1.182.49.446 0 .866-.175 1.181-.49l.386-.385c1.262 1.123 2.611 2.16 4.02 3.09L22.1 36.952c-.346.344-.804.535-1.292.535m-6.086 2.315l-3.643 3.64-.001.003-.121.12-.794.795c-.39.39-.907.603-1.46.603-.552 0-1.07-.214-1.46-.603l-2.323-2.323c-.39-.39-.604-.909-.604-1.46 0-.551.214-1.07.604-1.46l.893-.892.019-.02L9.48 34.56c.39-.39.908-.603 1.46-.603.547 0 1.063.212 1.453.598l2.218 2.217.112.112c.389.39.604.908.604 1.459s-.215 1.07-.604 1.46M3.662 29.36c.098-2.43 1.099-4.715 2.82-6.436l4.056-4.055c.512 1.283 1.102 2.54 1.76 3.75l-2.266 2.266c-.976.974-1.514 2.272-1.514 3.654 0 .844.2 1.662.586 2.396-.744.267-1.423.698-1.986 1.26L4.87 34.444c-.864-1.546-1.281-3.293-1.21-5.083m82.716-.398c-.12-3.29-1.468-6.384-3.798-8.712l-5.42-5.421c1.115-4.212 1.436-8.548.953-12.895-.094-.847-.808-1.485-1.66-1.485-.061 0-.123.002-.184.01-.916.101-1.579.928-1.477 1.844.363 3.267.223 6.54-.416 9.742l-1.25-1.25c-.998-.999-2.326-1.548-3.74-1.548-1.416 0-2.746.55-3.741 1.55-2.061 2.062-2.06 5.418 0 7.48l4.475 4.471c-1.265 2.007-2.76 3.878-4.448 5.568-2.99 2.99-6.49 5.322-10.396 6.927-3.857 1.585-7.927 2.389-12.096 2.389-2.073 0-4.151-.204-6.188-.608l1.25-1.25c1-1 1.55-2.328 1.55-3.74 0-1.415-.551-2.744-1.55-3.74-.997-.998-2.325-1.547-3.74-1.547-1.414 0-2.742.55-3.74 1.546l-4.48 4.48c-2.022-1.27-3.899-2.768-5.586-4.457-1.857-1.857-3.48-3.934-4.82-6.173l-.002-.002c-.01-.025-.027-.062-.053-.103-.52-.88-.998-1.79-1.418-2.694-.612-1.304-1.139-2.662-1.564-4.036-.022-.067-.048-.135-.082-.208-1.2-3.946-1.619-8.035-1.247-12.154.084-.917-.595-1.732-1.513-1.815-.05-.005-.102-.007-.153-.007-.855 0-1.585.668-1.662 1.52-.388 4.293.002 8.561 1.163 12.694L4.12 20.561C1.803 22.877.455 25.954.323 29.224c-.11 2.742.622 5.38 2.118 7.65C1.495 37.883.975 39.19.975 40.578c0 1.443.562 2.8 1.584 3.823l2.323 2.323c1.02 1.02 2.377 1.581 3.823 1.581 1.381 0 2.682-.513 3.685-1.45 2.135 1.43 4.613 2.183 7.187 2.183.799 0 1.604-.075 2.395-.221.439-.082.82-.328 1.073-.696.253-.368.347-.812.266-1.251-.146-.792-.838-1.367-1.643-1.367-.1 0-.203.01-.303.028-.587.108-1.185.163-1.778.163-1.678 0-3.315-.435-4.766-1.265l2.265-2.264c.559-.56.988-1.23 1.256-1.964.753.41 1.597.625 2.47.625 1.38 0 2.678-.537 3.651-1.511l3.247-3.245.007-.008 5.405-5.404c.367-.367.857-.569 1.379-.569s1.011.202 1.378.57c.368.366.57.854.57 1.376 0 .52-.203 1.009-.57 1.377l-3.336 3.336c-.01.008-.016.015-.023.022l-6.096 6.095c-.318.318-.66.616-1.015.885-.356.268-.586.66-.647 1.102-.06.442.053.882.323 1.238.318.421.804.663 1.333.663.367 0 .715-.117 1.007-.339.479-.361.937-.76 1.362-1.186l5.419-5.417c2.932.773 5.95 1.164 8.973 1.164 3.202 0 6.392-.439 9.486-1.307l5.246 5.249c2.317 2.317 5.395 3.664 8.665 3.796.17.006.347.01.526.01 2.552 0 5.007-.735 7.125-2.13 1.005.946 2.312 1.465 3.702 1.465 1.445 0 2.802-.562 3.822-1.58l2.324-2.324c1.021-1.022 1.583-2.38 1.583-3.823 0-1.38-.515-2.682-1.453-3.687 1.522-2.275 2.272-4.923 2.172-7.681" mask="url(#prefix__b)"/>
            </g>
            <path fill="#535353" d="M4.608 14.815l2.262 2.262c.557.557 1.228.984 1.964 1.253-.413.753-.628 1.598-.628 2.47 0 1.381.538 2.678 1.514 3.655l8.659 8.658c.759.76.758 1.996-.001 2.756-.367.367-.856.57-1.378.57-.52 0-1.008-.203-1.376-.57l-9.455-9.455c-3.062-3.062-3.683-7.86-1.56-11.599zm.066-7.577l2.323-2.325c.39-.388.908-.602 1.46-.602.552 0 1.07.214 1.46.603l.908.908.012.012.003.002c0 .002.002.003.004.005l3.632 3.631c.39.39.604.909.604 1.46 0 .551-.215 1.07-.604 1.46l-2.324 2.323c-.39.388-.907.603-1.46.603-.551 0-1.07-.215-1.46-.603l-4.557-4.559c-.39-.389-.605-.908-.605-1.46 0-.551.215-1.07.604-1.458zm14.609-3.591c.13 0 .262.002.393.008 2.43.096 4.715 1.098 6.436 2.82l4.05 4.049c-1.282.51-2.54 1.1-3.752 1.758l-2.258-2.259c-.974-.974-2.272-1.51-3.654-1.51-.842 0-1.66.2-2.395.585-.268-.744-.699-1.423-1.265-1.99l-2.246-2.244c1.43-.798 3.04-1.217 4.69-1.217zm-.023 13.786l-.346-.346c-.315-.316-.735-.49-1.182-.49-.446 0-.865.174-1.18.49-.651.65-.651 1.711 0 2.362l.37.371c-1.122 1.26-2.159 2.608-3.091 4.02l-1.749-1.748c-.345-.344-.534-.803-.534-1.292 0-.487.19-.946.534-1.29l7.124-7.123c.345-.345.804-.534 1.292-.534s.947.19 1.291.534l1.687 1.687c-1.484 1.007-2.899 2.134-4.216 3.359zm31.256-1.81l9.453-9.455c1.813-1.812 4.24-2.81 6.834-2.81 1.687 0 3.324.43 4.767 1.248L69.308 6.87c-.559.559-.986 1.23-1.254 1.966-.754-.412-1.6-.627-2.472-.627-1.382 0-2.68.536-3.654 1.51l-8.658 8.659c-.367.367-.856.57-1.377.57-.522 0-1.011-.203-1.379-.57-.368-.367-.57-.857-.57-1.378 0-.52.203-1.008.572-1.376zM76.23 4.673c.388-.389.906-.603 1.458-.603.552 0 1.07.214 1.46.604l2.324 2.323c.389.39.603.908.603 1.459 0 .552-.214 1.07-.603 1.46l-.908.908c-.006.004-.012.012-.02.019l-3.632 3.632c-.388.389-.907.603-1.458.603-.552 0-1.07-.214-1.46-.603l-2.323-2.324c-.805-.805-.805-2.114 0-2.92l4.559-4.557zm6.501 15.002c-.097 2.428-1.099 4.713-2.82 6.435l-4.09 4.087c-.636-1.576-1.402-3.102-1.744-3.764l2.283-2.284c.976-.975 1.514-2.272 1.514-3.654 0-.844-.2-1.662-.586-2.397.744-.267 1.424-.697 1.988-1.261l2.246-2.246c.864 1.547 1.281 3.293 1.209 5.084zm-8.733 2.11l-1.7 1.701c-1.006-1.482-2.133-2.897-3.358-4.216l.357-.357c.316-.316.49-.735.49-1.182 0-.446-.174-.866-.49-1.181-.315-.316-.734-.49-1.181-.49-.446 0-.866.174-1.181.49l-.382.382c-1.262-1.126-2.61-2.165-4.017-3.095l1.756-1.756c.344-.344.803-.534 1.292-.534s.948.19 1.292.534l2.379 2.38.016.017.041.04 4.686 4.685c.345.344.535.804.535 1.292s-.19.947-.535 1.29zM3.806 28.778l9.455 9.454c.999.999 2.327 1.549 3.74 1.549 1.416 0 2.745-.55 3.74-1.55 2.062-2.062 2.061-5.418 0-7.48l-4.495-4.494c1.165-1.85 2.534-3.593 4.073-5.183.043-.036.08-.07.114-.104.045-.045.087-.094.133-.152l.13-.131c1.832-1.831 3.88-3.435 6.084-4.764.075-.03.146-.067.214-.106.883-.522 1.79-1 2.697-1.423 1.307-.612 2.665-1.138 4.038-1.564.08-.025.16-.057.242-.098 2.998-.905 6.096-1.363 9.208-1.363 2.09 0 4.188.208 6.246.62l-1.273 1.272c-1 1-1.55 2.327-1.55 3.74 0 1.413.55 2.742 1.55 3.74.998.997 2.326 1.546 3.74 1.546 1.414 0 2.742-.55 3.74-1.547l4.488-4.488c2.005 1.264 3.87 2.755 5.55 4.436 1.989 1.99 3.703 4.223 5.092 6.635.504.876 2.062 4.139 2.753 6.25.022.104.054.208.097.307.285.919.891 1.025 1.322 1.025l.12-.001.096-.002c.448 0 .866-.174 1.182-.488l5.941-5.94c2.317-2.318 3.666-5.394 3.796-8.665.11-2.74-.621-5.378-2.118-7.65.947-1.006 1.466-2.314 1.466-3.702 0-1.444-.562-2.8-1.583-3.822L81.51 2.31C80.49 1.292 79.133.73 77.688.73c-1.382 0-2.683.513-3.686 1.449C71.867.752 69.386 0 66.804 0c-.16 0-.325.002-.485.009-3.29.12-6.384 1.468-8.714 3.798l-5.398 5.398c-2.952-.783-5.988-1.18-9.025-1.18-3.2 0-6.391.44-9.49 1.306l-5.217-5.22C26.157 1.795 23.079.447 19.809.316c-.175-.007-.354-.01-.53-.01-2.549 0-5.003.734-7.12 2.128C11.152 1.49 9.845.971 8.456.971c-1.445 0-2.802.561-3.823 1.58L2.311 4.874C1.291 5.896.728 7.252.728 8.696c0 1.382.514 2.684 1.453 3.687C.659 14.66-.091 17.307.009 20.065c.12 3.289 1.468 6.383 3.797 8.712zM28.426 61.52l-1.784-2.014 5.26-4.732 1.818 2.052-5.294 4.693zm-5.9-6.656l5.295-4.693 1.864 2.102-5.261 4.732-1.898-2.14zm5.342-8.268c-.677 0-1.33.246-1.835.696l-6.15 5.45c-.553.49-.882 1.168-.928 1.907-.044.74.201 1.45.69 2.004l3.381 3.813.012.016.025.026.005.004 3.237 3.652c.524.592 1.28.93 2.073.93.678 0 1.33-.246 1.836-.694l6.151-5.453c.553-.49.882-1.166.926-1.906.045-.74-.2-1.45-.69-2.003l-6.659-7.51c-.524-.593-1.28-.932-2.074-.932z" transform="translate(32 32)"/>
            <path fill="#249FEB" d="M49.856 32.456l8.753-7.758 6.343 7.155-8.753 7.758-6.343-7.155zm17.127-2.342l-6.404-7.224c-.961-1.084-2.624-1.184-3.709-.223l-8.822 7.82c-.526.465-.838 1.107-.88 1.808-.042.7.192 1.375.657 1.9l6.404 7.224c.465.525 1.107.838 1.808.88.053.003.107.005.161.005.64 0 1.258-.235 1.74-.662l8.822-7.82c.524-.464.837-1.106.88-1.808.042-.7-.191-1.375-.657-1.9z" transform="translate(32 32)"/>
        </g>
    </g>
</svg>
