<svg xmlns="http://www.w3.org/2000/svg" xmlns:xlink="http://www.w3.org/1999/xlink" width="68" height="68" viewBox="0 0 68 68">
    <defs>
        <path id="prefix__a" d="M0 0.029L67.971 0.029 67.971 67.831 0 67.831z"/>
    </defs>
    <g fill="none" fill-rule="evenodd">
        <mask id="prefix__b" fill="#fff">
            <use xlink:href="#prefix__a"/>
        </mask>
        <path fill="#ECECEC" d="M33.985 3.537c-16.8 0-30.467 13.634-30.467 30.393 0 16.757 13.666 30.393 30.467 30.393 16.8 0 30.469-13.636 30.469-30.393 0-12.242-7.304-23.236-18.609-28.005-1.588-.671-3.249-1.21-4.932-1.6-2.257-.523-4.588-.788-6.928-.788m0 64.294C15.245 67.831 0 52.623 0 33.93 0 15.237 15.245.029 33.985.029c2.609 0 5.207.295 7.725.879 1.878.436 3.73 1.037 5.505 1.786C59.824 8.014 67.97 20.274 67.97 33.93c0 18.693-15.246 33.901-33.986 33.901" mask="url(#prefix__b)"/>
    </g>
</svg>
