<svg xmlns="http://www.w3.org/2000/svg" xmlns:xlink="http://www.w3.org/1999/xlink" width="140" height="100" viewBox="0 0 140 100">
    <defs>
        <path id="prefix__a" d="M0 43L116.928 43 116.928 0.426 0 0.426z"/>
    </defs>
    <g fill="none" fill-rule="evenodd">
        <path d="M0 0H140V100H0z"/>
        <g>
            <path fill="#7E8083" d="M85.72 12.434L85.72 32.208 106.528 32.208 116.928 21.808 96.127 21.808 96.127 12.434z" transform="translate(11 28)"/>
            <path fill="#7E8083" d="M96.126 1.001L85.719 11.405 106.527 11.405 106.527 20.775 116.928 20.775 116.928 1.001z" transform="translate(11 28)"/>
            <g transform="translate(11 28) translate(0 .574)">
                <path fill="#7E8083" d="M4.49 38.09v2.269c0 .556-.147.992-.429 1.33-.275.323-.73.497-1.4.499H.652V36.19h2.01c.644 0 1.1.15 1.386.427.284.266.442.752.442 1.473m.003-1.928c-.44-.386-1.039-.573-1.774-.573H0v7.21h2.726c.757 0 1.363-.222 1.787-.673.43-.45.638-1.046.638-1.767v-2.28c0-.873-.209-1.522-.658-1.917M9.524 40.301v2.033c-.279.016-.512.028-.697.033-.22.014-.43.022-.63.029-.205.008-.345.01-.42.01-.272-.001-.507-.092-.723-.277-.199-.178-.3-.417-.302-.754 0-.009 0-.019.002-.028.002-.32.105-.557.327-.752.212-.189.544-.294 1.005-.294h1.438zm.252-2.294c-.27-.266-.624-.398-1.035-.398h-.766c-.13 0-.26.004-.389.009-.129.01-.25.014-.365.021-.11.015-.23.023-.366.03l-.118.007v.535h1.934c.277 0 .476.076.626.223.145.14.227.38.227.74v.534H7.985c-.597 0-1.07.155-1.399.479-.32.317-.486.714-.484 1.165-.002.471.156.877.474 1.185.31.305.701.462 1.144.462h.006c.09 0 .24-.006.455-.01.22-.006.438-.017.656-.03l.835-.051h.514v-3.773c0-.474-.13-.858-.41-1.128zM12.584 36.463V35.6h-.68v1.468l.68-.604zm-.67 6.445h.67v-5.22h-.67v5.22zM17.545 40.367c-.285-.249-.678-.396-1.164-.458l-.522-.05c-.466-.053-.79-.143-.954-.254-.152-.102-.236-.28-.238-.59.002-.326.105-.507.309-.619.225-.12.53-.187.914-.196h1.81v-.549l-.118-.002c-.27-.007-.498-.017-.681-.03-.182-.006-.367-.013-.56-.022-.194-.004-.343-.008-.453-.008-.254 0-.491.026-.714.077-.227.052-.426.137-.6.252-.175.125-.314.28-.416.46-.105.188-.154.414-.154.667-.003.462.157.825.484 1.031.309.2.717.32 1.227.375l.488.05c.39.042.669.148.838.298.172.15.256.343.258.626-.004.378-.125.591-.368.722-.264.137-.616.21-1.051.21h-1.707v.576l.118.004c.27.016.496.026.678.03.18.007.357.013.533.017.175.003.308.004.397.004.277 0 .542-.025.792-.077.25-.054.473-.142.66-.273.193-.129.348-.296.46-.5.115-.207.17-.459.17-.744 0-.424-.145-.78-.436-1.027M23.394 38.593c-.104-.213-.235-.396-.402-.544-.166-.146-.354-.257-.56-.332-.21-.08-.423-.12-.637-.12-.149 0-.33.033-.547.096-.209.06-.417.129-.62.203-.158.057-.34.13-.55.213v-2.512h-.644v7.311h.643v-4.19l.656-.248c.194-.062.396-.127.603-.185.203-.058.361-.085.46-.084.283 0 .53.1.765.312.224.206.335.473.34.83v3.565h.65v-3.575c0-.273-.052-.523-.157-.74M25.822 36.46v-.862h-.68v1.469l.68-.606zm-.67 6.449h.67v-5.221h-.67v5.22zM31.599 38.593c-.102-.213-.236-.396-.401-.544-.165-.146-.352-.257-.563-.332-.208-.08-.42-.12-.637-.12-.15 0-.329.033-.544.096-.212.06-.418.129-.62.203-.16.057-.345.13-.552.212v-.42h-.642v5.22h.642v-4.19l.655-.248c.195-.062.396-.126.604-.185.203-.058.36-.087.457-.085.284 0 .532.101.767.313.226.206.337.473.34.83v3.565h.65v-3.575c0-.273-.052-.523-.156-.74M39.833 39.84c-.114-.22-.277-.4-.48-.537-.196-.134-.435-.24-.707-.315-.265-.075-.555-.14-.872-.191-.311-.05-.585-.102-.816-.16-.23-.057-.42-.135-.571-.232-.147-.094-.255-.218-.328-.378-.072-.154-.114-.373-.114-.654v-.032c0-.46.134-.751.386-.928.269-.188.679-.292 1.232-.292h2.085v-.548l-.116-.003c-.272-.014-.51-.026-.71-.031-.198-.006-.412-.014-.64-.025-.23-.01-.44-.016-.626-.016-.68 0-1.23.136-1.643.42-.426.293-.633.793-.63 1.455 0 .383.053.696.173.943.112.239.28.438.498.58.213.143.463.249.754.323.283.07.598.13.938.186.293.05.55.107.773.164.217.058.394.135.533.225.133.094.233.208.3.349.065.137.1.324.1.565.002.607-.14 1-.387 1.21-.258.219-.653.339-1.2.339h-2.302v.566l.115.007c.313.012.58.02.809.027.223.015.464.024.718.026.252.005.476.007.669.007.7 0 1.254-.158 1.648-.493.4-.345.585-.928.585-1.72 0-.332-.057-.61-.174-.837M41.621 39.939v-.367c.003-.435.13-.755.386-.995.257-.242.596-.367 1.046-.376.471 0 .82.11 1.06.31.232.195.36.524.36 1.023v.405h-2.852zm3.513-.417c.003-.617-.183-1.108-.564-1.44-.376-.327-.888-.484-1.518-.484-.271 0-.534.045-.785.128s-.476.207-.667.369c-.199.164-.356.372-.471.616-.114.248-.171.528-.171.84v.907c0 .785.152 1.406.466 1.856.323.462.872.686 1.601.686h.007c.115 0 .27-.003.471-.006.199-.003.395-.01.588-.016.194-.006.431-.015.718-.028l.117-.007v-.557h-1.884c-.555-.001-.901-.167-1.102-.484-.193-.311-.302-.763-.316-1.352h3.51v-1.028zM49.285 37.63c.17.013.394.022.671.028l.118.004v.56H48.52c-.542 0-.951.117-1.246.346-.283.223-.432.58-.435 1.113v1.245c.003.577.162.938.45 1.133.309.21.718.317 1.231.317h1.585v.566l-.117.007c-.266.012-.483.023-.659.03-.179.006-.353.01-.518.014-.167.002-.284.006-.351.006-.661 0-1.213-.157-1.636-.477-.439-.333-.646-.887-.646-1.616v-1.225c0-.679.208-1.214.636-1.567.423-.346.974-.517 1.646-.517 0 0 .65.02.825.032M54.708 37.688v4.19c-.262.105-.482.186-.663.245-.2.074-.4.137-.601.194-.198.055-.355.079-.455.079-.295 0-.543-.09-.768-.277-.21-.171-.324-.447-.324-.865v-3.566h-.652v3.576c0 .3.046.559.146.78.095.218.226.402.393.547.164.144.355.248.568.313.207.063.419.096.637.096.142 0 .319-.033.534-.091.212-.058.42-.121.622-.197.16-.06.349-.132.563-.22v.417h.65v-5.221h-.65zM59.16 37.688c-.316 0-.62.045-.91.13-.22.067-.432.169-.63.309v-.44h-.682v5.222h.681v-4.115c.264-.17.51-.29.732-.36.24-.074.51-.113.82-.113h.757v-.633h-.769zM61.697 36.463v-.866h-.68v1.47l.68-.604zm-.674 6.445h.674v-5.22h-.674v5.22zM65.999 38.312v-.623h-1.691v-1.492l-.673.625v.867h-.814v.623h.814v2.853c0 .545.112.978.352 1.286.256.314.672.458 1.22.458h.792v-.61h-.778c-.401-.004-.622-.108-.727-.281-.118-.195-.186-.498-.186-.904v-2.802h1.69z"/>
                <mask id="prefix__b" fill="#fff">
                    <use xlink:href="#prefix__a"/>
                </mask>
                <path fill="#7E8083" d="M67.034 42.908h.671v-5.221h-.671v5.221zm.671-6.445v-.866h-.682v1.467l.682-.601zM69.74 39.939v-.367c0-.435.128-.755.384-.995.256-.242.597-.367 1.046-.376.471 0 .82.11 1.06.31.233.195.358.524.36 1.023v.405h-2.85zm3.511-.417c.002-.617-.185-1.112-.564-1.44-.376-.326-.889-.484-1.519-.484-.27 0-.53.045-.785.127-.25.084-.473.208-.666.37-.2.164-.358.372-.47.616-.116.248-.172.528-.172.84v.907c0 .785.151 1.406.465 1.856.322.462.873.686 1.6.686h.01c.114 0 .271-.003.471-.006.196-.003.394-.01.586-.016.194-.006.433-.017.72-.028l.117-.007v-.557H71.16c-.555-.001-.9-.167-1.1-.484-.197-.311-.306-.763-.319-1.352h3.511v-1.028zM77.808 40.367c-.286-.249-.677-.396-1.162-.458l-.522-.05c-.465-.053-.79-.143-.956-.254-.15-.102-.236-.28-.24-.59.007-.326.106-.506.31-.619.225-.12.532-.187.918-.196h1.81v-.549l-.12-.002c-.27-.007-.499-.017-.68-.03-.181-.006-.368-.015-.56-.022-.194-.004-.343-.008-.453-.008-.255 0-.49.026-.715.077-.225.052-.425.137-.597.252-.176.125-.316.28-.417.46-.106.187-.157.414-.157.665-.002.464.16.827.487 1.033.308.198.715.32 1.227.375l.488.05c.39.042.668.148.839.298.168.15.253.343.257.626-.005.378-.126.591-.37.722-.263.137-.615.21-1.052.21h-1.707v.575l.117.005c.273.016.499.026.68.03.176.007.358.014.534.017.175.003.31.004.395.004.278 0 .544-.025.79-.077.254-.054.477-.142.665-.273.19-.128.346-.296.457-.5.117-.207.172-.459.172-.744.002-.424-.146-.779-.438-1.027M15.495 11.859L15.495 18.715 12.028 18.715 12.028 11.859 10.593 11.859 10.593 26.896 1.437 26.896 1.437 13.9 8.007 13.9 8.007 12.58.006 12.58.006 28.22 9.478 28.22 10.593 27.11 10.593 30.402 12.028 30.402 12.028 20.039 15.495 20.039 15.495 30.402 16.931 30.402 16.931 11.859zM25.132 30.314V24.47h-1.434v7.164h13.55v-1.32H25.132zm2.31-16.842l3.777 9.083h1.5l-.141-.34L28.42 12.15h-4.082l-4.293 10.405h1.496l3.778-9.083h2.122zm8.035 13.107h1.434V11.86h-1.434v14.72zM39.498 22.104h19.604v-1.32H39.498v1.32zm2.714-2.719h1.598l3.874-5.891h3.182l4.016 5.891h1.627l-4.018-5.891h4.291v-1.322H41.907v1.322h4.182l-3.877 5.891zm11.741 10.27c-.326.409-.737.734-1.253.975-.517.258-1.087.441-1.72.543-.637.102-1.246.152-1.813.152-.619 0-1.243-.05-1.872-.152-.625-.102-1.181-.284-1.681-.54-.498-.252-.892-.591-1.207-1.007-.303-.402-.462-.906-.462-1.538.002-.601.161-1.089.471-1.492.322-.422.724-.757 1.221-1.012.513-.258 1.082-.443 1.71-.564.628-.116 1.235-.173 1.82-.173.564 0 1.171.057 1.807.173.636.121 1.208.306 1.722.564.511.272.928.613 1.255 1.035.313.403.473.897.473 1.513 0 .63-.161 1.126-.471 1.523zm0-4.876c-.614-.377-1.325-.669-2.127-.874-.813-.208-1.694-.312-2.659-.312-.965 0-1.847.104-2.66.312-.803.207-1.509.497-2.102.872-.603.396-1.072.868-1.405 1.432-.337.562-.513 1.202-.511 1.901-.002.712.174 1.356.511 1.923.333.558.802 1.035 1.403 1.426.597.381 1.304.662 2.108.855.813.193 1.691.287 2.656.287.962 0 1.841-.094 2.654-.287.803-.193 1.517-.474 2.125-.851.604-.395 1.078-.871 1.419-1.429.347-.566.519-1.211.516-1.924.003-.7-.171-1.34-.516-1.905-.341-.56-.815-1.033-1.412-1.426zM65.975 30.314v-4.967h-1.433v6.287h13.684v-1.32h-12.25zm-.063-5.692h1.434v-3.845h9.142v1.917h-5.651v1.3h5.651v2.898h1.445V11.858h-1.445v7.598h-5.222l1.231-1.24v-6.044h-9.953v1.345h8.52l.002 5.94H60.404v1.32h5.508v3.845z" mask="url(#prefix__b)"/>
            </g>
        </g>
    </g>
</svg>
