<svg xmlns="http://www.w3.org/2000/svg" width="100" height="100" viewBox="0 0 100 100">
    <g fill="none" fill-rule="evenodd">
        <path fill="#FFF" d="M0 100L100 100 100 0 0 0z"/>
        <g fill="#EAEAEA">
            <path fill-rule="nonzero" d="M48.106 25.648c4.813 0 8.518 4.613 8.518 10.114 0 5.281-3.415 9.744-7.946 10.092l-.021.002-.02.088c-2.568 11.48-10.969 19.797-20.919 19.97l-.318.003c-10.089 0-18.642-8.371-21.237-19.973l-.02-.088-.021-.002c-4.484-.345-7.875-4.718-7.945-9.927l-.001-.165c0-5.501 3.705-10.114 8.518-10.114 1.152 0 2.273.273 3.31.79.99.492 1.392 1.693.9 2.681-.485.972-1.653 1.378-2.631.924l-.052-.025c-.493-.245-1.005-.37-1.527-.37-2.387 0-4.518 2.653-4.518 6.114s2.13 6.114 4.518 6.114c.19 0 .382-.017.578-.052l.098-.02c1.114-.23 2.196.512 2.38 1.635 1.766 10.767 9.18 18.478 17.65 18.478 8.47 0 15.884-7.711 17.65-18.478.181-1.104 1.232-1.842 2.326-1.645l.055.01c.229.048.454.072.675.072 2.387 0 4.518-2.653 4.518-6.114s-2.13-6.114-4.518-6.114c-.49 0-.97.11-1.435.326l-.092.044c-.99.493-2.19.09-2.682-.899-.493-.988-.09-2.189.899-2.681 1.037-.517 2.158-.79 3.31-.79z" transform="translate(22.6 18)"/>
            <path d="M22.154 35.491c0 1.494-1.211 2.705-2.705 2.705s-2.704-1.211-2.704-2.705 1.21-2.704 2.704-2.704c1.494 0 2.705 1.21 2.705 2.704M32.646 35.491c0 1.494 1.211 2.705 2.705 2.705 1.493 0 2.705-1.211 2.705-2.705s-1.212-2.704-2.705-2.704c-1.494 0-2.705 1.21-2.705 2.704" transform="translate(22.6 18)"/>
            <path fill-rule="nonzero" d="M14.688 14.44c.737-.824 2-.895 2.824-.159 2.654 2.373 5.792 4.52 9.384 6.198 4.622 2.159 9.654 3.37 15.087 3.396 1.104.005 1.995.905 1.99 2.01-.005 1.104-.905 1.995-2.01 1.99-6.033-.03-11.631-1.376-16.76-3.772-3.969-1.853-7.426-4.22-10.356-6.84-.824-.736-.895-2-.159-2.823z" transform="translate(22.6 18)"/>
            <path fill-rule="nonzero" d="M17.485 18.024c.21-1.085 1.258-1.795 2.342-1.586 1.085.209 1.795 1.257 1.586 2.342-.667 3.463-2.771 5.935-5.718 7.527-.971.525-2.185.163-2.71-.809-.525-.971-.163-2.185.809-2.71 1.967-1.063 3.274-2.598 3.691-4.764zM8.73 9.157c.907-.63 2.154-.406 2.784.5.63.908.407 2.154-.5 2.784-2.051 1.427-3.352 3.102-4.044 4.994-.894 2.444-.747 5.138.061 7.73.131.42.27.802.408 1.14l.046.111c.08.192.14.32.169.378l.006.012c.501.984.11 2.189-.875 2.69-.984.501-2.188.11-2.69-.875l-.03-.063c-.068-.136-.16-.335-.267-.591-.2-.478-.4-1.017-.585-1.61-1.048-3.358-1.24-6.903 0-10.296.977-2.67 2.794-5.01 5.517-6.904zM18.827-.06c3.714-1.559 8.172-2.198 13.41-1.684 15.382 1.51 24.318 15.882 19.43 30.045-.36 1.044-1.498 1.598-2.543 1.238-1.026-.354-1.579-1.46-1.256-2.49l.018-.053C51.94 15.25 44.628 3.492 31.846 2.237c-4.587-.45-8.38.093-11.471 1.391-2.23.936-3.913 2.18-5.115 3.517-.738.822-2.003.89-2.824.151-.822-.738-.89-2.003-.151-2.824 1.581-1.76 3.742-3.357 6.542-4.532z" transform="translate(22.6 18)"/>
        </g>
    </g>
</svg>
