<?xml version="1.0" encoding="UTF-8"?>
<svg width="168px" height="168px" viewBox="0 0 168 168" version="1.1" xmlns="http://www.w3.org/2000/svg" xmlns:xlink="http://www.w3.org/1999/xlink">
    <!-- Generator: sketchtool 63.1 (101010) - https://sketch.com -->
    <title>6E3A1E64-75AF-417C-A0E7-BF0F1ED09A40</title>
    <desc>Created with sketchtool.</desc>
    <g id="03.-인재채용" stroke="none" stroke-width="1" fill="none" fill-rule="evenodd">
        <g id="03_1920px" transform="translate(-1332.000000, -5404.000000)">
            <g id="img_sub03_process_step04" transform="translate(1332.000000, 5404.000000)">
                <g transform="translate(0.988235, 0.988235)" id="Group-7">
                    <g>
                        <circle id="Oval" stroke="#D6D6D6" fill="#FFFFFF" cx="83.0117647" cy="83.0117647" r="83.0117647"></circle>
                        <g id="Group-15" transform="translate(44.470588, 54.352941)" fill-rule="nonzero">
                            <path d="M27.7171341,30.1540235 C27.7171341,34.4059746 24.2707322,37.8523765 20.0187812,37.8523765 C15.7668301,37.8523765 12.3204282,34.4059746 12.3204282,30.1540235 C12.3204282,25.9020725 15.7668301,22.4556706 20.0187812,22.4556706 C24.2707322,22.4556706 27.7171341,25.9020725 27.7171341,30.1540235 Z M23.7641929,30.1540235 C23.7641929,28.0852216 22.0875831,26.4086118 20.0187812,26.4086118 C17.9499793,26.4086118 16.2733694,28.0852216 16.2733694,30.1540235 C16.2733694,32.2228254 17.9499793,33.8994353 20.0187812,33.8994353 C22.0875831,33.8994353 23.7641929,32.2228254 23.7641929,30.1540235 Z" id="Stroke-1" fill="#535353"></path>
                            <path d="M12.8742353,45.0142165 C12.8742353,41.0893891 16.0560471,37.9078165 19.9816235,37.9078165 C23.9072,37.9078165 27.0890118,41.0893891 27.0890118,45.0142165 C27.0890118,46.105791 27.9739078,46.9906871 29.0654824,46.9906871 C30.1570569,46.9906871 31.0419529,46.105791 31.0419529,45.0142165 C31.0419529,38.9061735 26.0902826,33.9548753 19.9816235,33.9548753 C13.8729644,33.9548753 8.92129412,38.9061735 8.92129412,45.0142165 C8.92129412,46.105791 9.80619014,46.9906871 10.8977647,46.9906871 C11.9893393,46.9906871 12.8742353,46.105791 12.8742353,45.0142165 Z" id="Stroke-3" fill="#535353"></path>
                            <path d="M39.4340471,34.5383294 L46.5750353,34.5383294 C47.6666099,34.5383294 48.5515059,33.6534334 48.5515059,32.5618588 C48.5515059,31.4702843 47.6666099,30.5853882 46.5750353,30.5853882 L39.4340471,30.5853882 C38.3424725,30.5853882 37.4575765,31.4702843 37.4575765,32.5618588 C37.4575765,33.6534334 38.3424725,34.5383294 39.4340471,34.5383294 Z" id="Stroke-5" fill="#535353"></path>
                            <path d="M39.4340471,43.3919294 L53.2120235,43.3919294 C54.3035981,43.3919294 55.1884941,42.5070334 55.1884941,41.4154588 C55.1884941,40.3238843 54.3035981,39.4389882 53.2120235,39.4389882 L39.4340471,39.4389882 C38.3424725,39.4389882 37.4575765,40.3238843 37.4575765,41.4154588 C37.4575765,42.5070334 38.3424725,43.3919294 39.4340471,43.3919294 Z" id="Stroke-7" fill="#535353"></path>
                            <path d="M63.2472565,36.8381506 L63.2472565,51.7466682 C63.2472565,53.3840138 61.9200795,54.7113741 60.2825506,54.7113741 L4.94137412,54.7113741 C3.30384522,54.7113741 1.97666824,53.3840138 1.97666824,51.7466682 L1.97666824,17.2434212 C1.97666824,15.6054899 3.3034428,14.2787153 4.94137412,14.2787153 L40.4209976,14.2787153 C41.5125722,14.2787153 42.3974682,13.3938193 42.3974682,12.3022447 C42.3974682,11.2106701 41.5125722,10.3257741 40.4209976,10.3257741 L4.94137412,10.3257741 C1.12029367,10.3257741 -1.97627294,13.4223407 -1.97627294,17.2434212 L-1.97627294,51.7466682 C-1.97627294,55.5670407 1.12057383,58.6643153 4.94137412,58.6643153 L60.2825506,58.6643153 C64.1033509,58.6643153 67.2001976,55.5670407 67.2001976,51.7466682 L67.2001976,36.8381506 C67.2001976,35.746576 66.3153016,34.86168 65.2237271,34.86168 C64.1321525,34.86168 63.2472565,35.746576 63.2472565,36.8381506 Z" id="Stroke-9" fill="#535353"></path>
                            <path d="M79.5019482,14.2785176 C79.5019482,23.2552216 72.2241581,30.5330118 63.2474541,30.5330118 C54.2700821,30.5330118 46.99296,23.2555418 46.99296,14.2785176 C46.99296,5.30149351 54.2700821,-1.97597647 63.2474541,-1.97597647 C72.2241581,-1.97597647 79.5019482,5.30181367 79.5019482,14.2785176 Z M75.5490071,14.2785176 C75.5490071,7.4849628 70.041009,1.97696471 63.2474541,1.97696471 C56.4532735,1.97696471 50.9459012,7.48460033 50.9459012,14.2785176 C50.9459012,21.072435 56.4532735,26.5800706 63.2474541,26.5800706 C70.041009,26.5800706 75.5490071,21.0720725 75.5490071,14.2785176 Z" id="Stroke-11" fill="#249FEB"></path>
                            <path d="M59.4363381,13.1936195 C58.6644783,12.4217598 57.4130464,12.4217598 56.6411866,13.1936195 C55.8693268,13.9654793 55.8693268,15.2169113 56.6411866,15.988771 L59.9053278,19.2529122 C60.6772629,20.0248474 61.9288438,20.024761 62.7006723,19.2527192 L69.8535194,12.0978956 C70.6252725,11.3259292 70.6250997,10.0744973 69.8531333,9.30274414 C69.0811669,8.53099099 67.8297349,8.53116387 67.0579818,9.30313026 L61.3027105,15.0599919 L59.4363381,13.1936195 Z" id="Stroke-13" fill="#249FEB"></path>
                        </g>
                    </g>
                </g>
            </g>
        </g>
    </g>
</svg>