<svg xmlns="http://www.w3.org/2000/svg" xmlns:xlink="http://www.w3.org/1999/xlink" width="16" height="16" viewBox="0 0 16 16">
    <defs>
        <path id="prefix__a" d="M8.427 2.932l2.059 1.99H3.582C2.073 4.922.776 4.1.101 2.903.621 5.797 3.226 8 6.369 8h7.96c.88 0 1.593-.69 1.593-1.539 0-.408-.168-.8-.467-1.089L10.68.755c-.299-.289-.704-.45-1.126-.45-1.418 0-2.128 1.658-1.126 2.627"/>
        <path id="prefix__d" d="M2.255 3.538v5.388l3.184 3.078V6.232C5.44 3.194 3.16.676.167.172 1.405.826 2.255 2.08 2.255 3.539"/>
        <path id="prefix__g" d="M0 0.098L11.942 0.098 11.942 11.641 0 11.641z"/>
        <linearGradient id="prefix__b" x1="81.353%" x2="17.638%" y1="67.824%" y2="37.866%">
            <stop offset="0%" stop-color="#60C3E8"/>
            <stop offset="100%" stop-color="#0089BF"/>
        </linearGradient>
        <linearGradient id="prefix__e" x1="68.033%" x2="35.05%" y1="82.426%" y2="10.887%">
            <stop offset="0%" stop-color="#60C3E8"/>
            <stop offset="100%" stop-color="#0089BF"/>
        </linearGradient>
    </defs>
    <g fill="none" fill-rule="evenodd">
        <g transform="translate(0 7.903)">
            <mask id="prefix__c" fill="#fff">
                <use xlink:href="#prefix__a"/>
            </mask>
            <path fill="url(#prefix__b)" d="M8.427 2.932l2.059 1.99H3.582C2.073 4.922.776 4.1.101 2.903.621 5.797 3.226 8 6.369 8h7.96c.88 0 1.593-.69 1.593-1.539 0-.408-.168-.8-.467-1.089L10.68.755c-.299-.289-.704-.45-1.126-.45-1.418 0-2.128 1.658-1.126 2.627" mask="url(#prefix__c)"/>
        </g>
        <g transform="translate(10.483 .436)">
            <mask id="prefix__f" fill="#fff">
                <use xlink:href="#prefix__d"/>
            </mask>
            <path fill="url(#prefix__e)" d="M2.255 3.538v5.388l3.184 3.078V6.232C5.44 3.194 3.16.676.167.172 1.405.826 2.255 2.08 2.255 3.539" mask="url(#prefix__f)"/>
        </g>
        <g transform="translate(0 .436)">
            <mask id="prefix__h" fill="#fff">
                <use xlink:href="#prefix__g"/>
            </mask>
            <path fill="#151F41" d="M7.96.097H6.37C2.85.097 0 2.854 0 6.254v1.539c0 2.125 1.782 3.848 3.98 3.848h.303c-.668-.565-1.099-1.385-1.099-2.309V6.254c0-1.7 1.426-3.079 3.185-3.079h3.184c.957 0 1.805.417 2.389 1.062v-.292C11.942 1.82 10.16.097 7.96.097" mask="url(#prefix__h)"/>
        </g>
    </g>
</svg>
