<svg xmlns="http://www.w3.org/2000/svg" xmlns:xlink="http://www.w3.org/1999/xlink" width="140" height="100" viewBox="0 0 140 100">
    <defs>
        <path id="prefix__a" d="M0 29.992L120.071 29.992 120.071 0 0 0z"/>
    </defs>
    <g fill="none" fill-rule="evenodd">
        <path d="M0 0H140V100H0z"/>
        <g transform="translate(10 35)">
            <path fill="#F8A984" d="M33.034 16.584c-.492-4.834-5.999-8.796-12.294-8.847-6.296-.052-10.999 3.824-10.505 8.661.495 4.834 5.998 8.794 12.295 8.846 6.297.053 11-3.826 10.504-8.66m-20.825-1.21c-.43-3.898 3.66-7.027 9.13-6.983 5.466.043 10.251 3.236 10.68 7.131.427 3.898-3.658 7.027-9.13 6.986-5.467-.043-10.25-3.234-10.68-7.134"/>
            <path fill="#F37B4B" d="M12.041 14.707c-3.603 3.767-3.662 9.558-.132 12.94 3.53 3.382 9.318 3.068 12.923-.697 3.605-3.765 3.661-9.558.131-12.942-3.528-3.381-9.315-3.067-12.922.699m11.49 10.638c-3.102 3.236-8.076 3.506-11.114.6-3.04-2.91-2.989-7.897.113-11.135 3.101-3.24 8.08-3.505 11.115-.6 3.04 2.909 2.99 7.892-.115 11.135"/>
            <path fill="#F05A28" d="M6.382 4.658C-.307 9.954-2.011 17.633 2.575 21.804c4.592 4.169 13.737 3.258 20.43-2.04 6.69-5.298 8.392-12.976 3.803-17.146-4.59-4.173-13.735-3.258-20.426 2.04m5.99-2.076c6.448-2.418 12.826.03 14.242 5.462 1.418 5.43-2.659 11.798-9.107 14.213-6.45 2.419-12.825-.03-14.246-5.461-1.418-5.433 2.661-11.797 9.111-14.214"/>
            <path fill="#231F20" d="M65.185 13.17h-1.771V9.03h-1.741l-.002 7.368c-.01.792-.37 1.311-.722 1.552l.004-.006c-.628.427-1.936.422-1.936.422h-1.99V16.35H55.29v2.016h-3.136v1.31c.088 0 4.67-.005 6.923 0 .06 0 1.905-.009 2.55-.695.026-.032.04-.055.048-.074v2.39h1.739V14.51h1.77v-1.34z"/>
            <mask id="prefix__b" fill="#fff">
                <use xlink:href="#prefix__a"/>
            </mask>
            <path fill="#231F20" d="M54.071 9.6L58.056 9.6 58.056 8.467 54.071 8.467zM52.229 11.09L59.986 11.09 59.986 9.996 52.229 9.996zM56.078 15.477c-.919-.002-1.66-.68-1.658-1.51.005-.833.755-1.413 1.673-1.41.92.002 1.662.59 1.657 1.42-.003.832-.753 1.505-1.672 1.5m.014-4.004c-1.963 0-3.315 1.14-3.315 2.544 0 1.23 1.344 2.545 3.315 2.545 2.007 0 3.308-1.35 3.308-2.545 0-1.405-1.284-2.544-3.308-2.544M50.621 13.228v-1.323h-1.777V9.033h-1.737v8.473h1.737v-4.278h1.777zM48.806 19.976h-6.522c-.374 0-.635-.13-.833-.354-.251-.284-.283-.648-.281-1.096v-1.27h-1.75v1.95c-.001.527.128 2.082 2.339 2.091h7.047v-1.32zM39.54 9.594L43.507 9.594 43.507 8.467 39.54 8.467zM41.549 15.456c-.916-.002-1.653-.677-1.649-1.504.003-.829.748-1.409 1.664-1.408.917.006 1.654.59 1.651 1.418-.003.828-.751 1.496-1.666 1.494m.013-3.988c-1.954 0-3.3 1.135-3.3 2.534 0 1.227 1.338 2.537 3.3 2.537 1.997 0 3.3-1.344 3.3-2.537 0-1.399-1.282-2.534-3.3-2.534M37.709 11.075L45.43 11.075 45.43 9.988 37.709 9.988zM73.833 17.614L73.833 21.291 72.09 21.291 72.09 17.614 66.701 17.614 66.701 16.301 79.263 16.301 79.263 17.614zM70.688 14.114h7.068v1.162h-7.192c-2.215 0-2.357-1.764-2.355-1.977V9.14h9.547v1.15H69.96v1.245s.005.011.005.018h7.79v1.151h-7.823v.662c.04.62.525.73.756.748M101.056 20.592c-1.122-.005-2.88-.181-2.875-1.344.005-1.101 1.766-1.317 2.885-1.31 1.119.007 2.879.238 2.875 1.338-.003 1.137-1.77 1.321-2.885 1.316m.014-3.752c-2.244 0-4.692.415-4.692 2.402 0 1.977 2.423 2.44 4.673 2.44 2.305 0 4.692-.343 4.692-2.402 0-1.96-2.368-2.44-4.673-2.44M106.24 9.14H95.877v1.31h3.956c0 .217-.096.441-.185.59-.694 1.21-2.686 2.054-3.77 2.121v1.224c2.931-.304 4.717-1.619 5.181-2.27.467.651 2.247 1.966 5.181 2.27v-1.224c-1.083-.067-3.073-.912-3.77-2.122-.088-.148-.182-.34-.182-.589h3.952V9.14zM101.906 14.976L100.172 14.976 94.769 14.976 94.769 16.282 107.346 16.282 107.346 14.976zM113.979 9.147h-4.612v1.317h4.093c.375.003.636.124.829.347.252.284.28.647.28 1.092v2.147l1.742.006v-2.83c.003-.523-.123-2.071-2.332-2.08M118.327 18.103L120.071 18.103 120.071 9.041 118.327 9.041 118.327 15.755 115.637 15.755 115.637 16.839 118.327 16.839z" mask="url(#prefix__b)"/>
            <path fill="#231F20" d="M108.862 13.992L116.999 13.992 116.999 15.223 113.459 15.223 113.459 17.055 111.782 17.055 111.782 15.223 108.862 15.223zM120.072 19.983h-6.534c-.373 0-.636-.129-.834-.355-.253-.284-.283-.649-.28-1.094v-.883h-1.742v1.562c0 .526.13 2.084 2.343 2.094h7.046v-1.324zM93.259 13.172h-1.774v-4.14h-1.73v12.265h1.73l-.003-6.785h1.777v-1.34zM85.448 10.73v-.25h2.733V9.14h-7.189v1.34h2.748v.25c.018 5.485-2.908 5.98-2.962 5.989v1.585c2.09-.542 3.48-2.454 3.814-3.28.327.826 1.72 2.738 3.804 3.28v-1.602s-2.968-.434-2.948-5.971" mask="url(#prefix__b)"/>
        </g>
    </g>
</svg>
