<svg xmlns="http://www.w3.org/2000/svg" xmlns:xlink="http://www.w3.org/1999/xlink" width="140" height="100" viewBox="0 0 140 100">
    <defs>
        <path id="prefix__a" d="M0.901 0.797L18.387 0.797 18.387 16 0.901 16z"/>
        <path id="prefix__c" d="M0.725 0.203L17.02 0.203 17.02 15.306 0.725 15.306z"/>
        <path id="prefix__e" d="M0 0.204L19.581 0.204 19.581 15.304 0 15.304z"/>
    </defs>
    <g fill="none" fill-rule="evenodd">
        <g>
            <path fill="#0076BF" d="M46.508 7.774V1.498h14.887c.174 0 .217.218.217.553 0 .34-.043.558-.217.558H49.09v1.926h12.203c.178 0 .219.22.219.556 0 .34-.041.558-.22.558H49.09v1.61c0 .316.279.593.598.593H61.59c.178 0 .219.223.219.56 0 .34-.041.553-.22.553H47.702c-.656 0-1.193-.535-1.193-1.191m15.88 3.955h-7.036v4.373h-2.586V11.73h-6.932l-.715-1.113h17.27c.176 0 .217.22.217.558 0 .337-.041.556-.217.556M75.186 14.908c-2.069-.652-4.43-2.362-5.288-4.368-.853 2.006-3.22 3.716-5.284 4.368l-.876-.813c2.582-.954 4.868-3.578 4.868-7.215V2.707H64.85l-.718-1.113h11.112c.177 0 .216.218.216.558 0 .337-.038.555-.215.555h-4.053V6.88c0 3.637 2.283 6.261 4.867 7.215l-.873.813zm2.464 1.194V1h1.986c.318 0 .593.275.593.594V5.57h1.97c.175 0 .216.22.216.555 0 .34-.04.558-.216.558h-1.97v9.42H77.65z" transform="translate(10 42)"/>
            <g transform="translate(10 42) translate(83 .797)">
                <mask id="prefix__b" fill="#fff">
                    <use xlink:href="#prefix__a"/>
                </mask>
                <path fill="#0076BF" d="M11.432 1.91h5.943c.18 0 .219-.218.219-.555 0-.34-.04-.558-.22-.558H1.699l.714 1.113h5.842c0 2.207-3.38 3.836-6.955 3.836l.656 1.016c4.055 0 6.914-1.194 7.887-2.725.975 1.531 3.834 2.725 7.895 2.725l.65-1.016c-3.576 0-6.955-1.629-6.955-3.836m5.965 10.215c0-1.353-.877-2.345-2.307-2.979h3.076c.184 0 .22-.22.22-.558 0-.34-.036-.557-.22-.557H.9l.718 1.115h2.977c-1.428.634-2.305 1.626-2.305 2.98C2.29 14.745 5.553 16 9.84 16c4.296 0 7.556-1.255 7.556-3.875m-2.686 0c0 1.925-2.105 2.763-4.87 2.763-2.76 0-4.866-.838-4.866-2.763 0-1.929 2.107-2.763 4.867-2.763 2.764 0 4.869.834 4.869 2.763" mask="url(#prefix__b)"/>
            </g>
            <g transform="translate(10 42) translate(103 .797)">
                <mask id="prefix__d" fill="#fff">
                    <use xlink:href="#prefix__c"/>
                </mask>
                <path fill="#0076BF" d="M3.506 15.306c-.654 0-1.19-.538-1.19-1.194v-3.378h1.987c.322 0 .599.278.599.596v2.266c0 .32.278.593.592.593h8.942v-3.535h-4.053L9.67 9.542h4.766V7.554H7.383v2.78H4.8v-2.78H1.44l-.716-1.11h8.088c.158-1.015.26-2.108.26-3.065v-1.47H2.038L1.317.798h9.742c.32 0 .597.28.597.596v1.59c0 .996-.14 2.344-.36 3.46h3.14V.204h1.988c.316 0 .596.276.596.594v14.509H3.506z" mask="url(#prefix__d)"/>
            </g>
            <path fill="#0076BF" d="M40.746 1.001h-2.762v5.855H26.711V1.001h-2.76c-.656 0-1.185.53-1.185 1.187v12.727c0 .654.529 1.186 1.185 1.186h2.76V9.8h11.273v6.302h2.762c.652 0 1.186-.532 1.186-1.186V2.188c0-.657-.534-1.187-1.186-1.187" transform="translate(10 42)"/>
            <g transform="translate(10 42) translate(0 .797)">
                <mask id="prefix__f" fill="#fff">
                    <use xlink:href="#prefix__e"/>
                </mask>
                <path fill="#0076BF" d="M18.395.204h-2.758V11.33l-8.69-8.799C5.572 1.182 4.622.204 2.417.204H0v13.914c0 .654.533 1.186 1.192 1.186H3.95V4.12l8.606 8.74c1.407 1.38 2.665 2.445 4.71 2.445h2.316V1.391c0-.657-.535-1.187-1.188-1.187" mask="url(#prefix__f)"/>
            </g>
        </g>
        <path d="M0 0H140V100H0z"/>
    </g>
</svg>
