<svg xmlns="http://www.w3.org/2000/svg" xmlns:xlink="http://www.w3.org/1999/xlink" width="140" height="100" viewBox="0 0 140 100">
    <defs>
        <path id="prefix__a" d="M0 0.178L13.195 0.178 13.195 9.636 0 9.636z"/>
        <path id="prefix__c" d="M0 18L130.748 18 130.748 0.238 0 0.238z"/>
    </defs>
    <g fill="none" fill-rule="evenodd">
        <path d="M0 0H140V100H0z"/>
        <g>
            <path fill="#E01B22" d="M0 7.467L59.573 7.467 59.573 1 0 1z" transform="translate(5 41)"/>
            <g transform="translate(5 41) translate(0 .762)">
                <path fill="#FEFEFE" d="M38.852 3.82c0 1.046-.852 1.894-1.9 1.894S35.05 4.866 35.05 3.82c0-1.044.853-1.89 1.9-1.89 1.049 0 1.9.846 1.9 1.89"/>
                <path fill="#231F20" d="M59.57 8.189L59.57 11.057 55.016 15.118 59.572 15.118 59.572 17.636 50.846 17.636 50.846 14.767 55.474 10.624 50.837 10.624 50.837 8.189z"/>
                <g transform="translate(0 8)">
                    <mask id="prefix__b" fill="#fff">
                        <use xlink:href="#prefix__a"/>
                    </mask>
                    <path fill="#231F20" d="M0 0.178L5.366 0.178 6.6 5.353 6.624 5.353 7.845 0.178 13.195 0.178 13.195 9.636 9.944 9.636 9.89 2.212 9.864 2.212 8.008 9.636 4.985 9.636 3.186 2.212 3.13 2.212 3.088 9.636 0 9.636z" mask="url(#prefix__b)"/>
                </g>
                <path fill="#231F20" d="M14.608 8.178L22.801 8.178 22.801 10.456 18.157 10.456 18.157 11.797 22.6 11.797 22.6 14.073 18.157 14.073 18.157 15.359 22.899 15.359 22.899 17.636 14.608 17.636zM49.831 10.971L46.634 10.971 46.634 17.636 43.004 17.636 43.004 10.971 39.805 10.971 39.805 8.178 49.831 8.178zM24.152 17.636h3.63v-3.21h.814c.448 0 .813.054 1.029.488.298.567.339 2.043.503 2.722h3.778c-.381-.92-.34-2.385-.895-3.388-.34-.5-.813-.88-1.6-1.017v-.027c1.356-.323 2.264-1.054 2.264-2.505 0-1.815-1.395-2.52-3.658-2.52h-5.865v9.457zm3.468-7.342h1c.732 0 1.425.12 1.425.975 0 .962-.732 1.042-1.476 1.042h-.95v-2.017z"/>
                <mask id="prefix__d" fill="#fff">
                    <use xlink:href="#prefix__c"/>
                </mask>
                <path fill="#231F20" d="M35.115 17.636L38.747 17.636 38.747 8.178 35.115 8.178zM72.051 8.195v9.422h-1.427v-5.368h-.83v4.418h-2.768c-.154 0-.289-.023-.405-.07-.115-.042-.227-.11-.329-.21-.097-.095-.17-.196-.222-.3-.049-.096-.075-.213-.075-.348V8.402h3.798v2.73h.831V8.196h1.427zm.713 9.422h1.428V8.195h-1.428v9.422zm-4.464-8.1h-.936v6.035h1.061V9.517H68.3zM83.426 8.195v9.422h-1.6v-1.392h-.127c-.03 0-.036 0-.279.107-.136.056-.338.103-.592.14l-.652.074c-.057.007-.233.015-.73.015h-2.952c-.152 0-.29-.02-.408-.064-.115-.044-.224-.115-.329-.214-.095-.095-.17-.195-.222-.298-.05-.1-.074-.215-.074-.352v-3.967h3.472v-2.15h-3.472V8.403h5.073v4.377h-3.473v2.67h2.637l.563-.011.555-.061c.406-.08.643-.145.764-.2l.153-.068.074-.034.018-.085V8.195h1.601zM84.67 17.313L92.981 17.313 92.981 16.2 84.67 16.2zM88.803 11.846c1.622 1.641 3.49 2.048 3.49 2.048l.583-.972c-2.886-1.07-3.25-3.19-3.25-3.19l2.966-.01V8.605h-2.949V7.97h-1.677v.636h-2.949v1.115l2.966.011s-.367 2.12-3.252 3.19l.584.972s1.868-.407 3.488-2.048M96.733 15.59c-.37.146-.556.323-.556.536 0 .21.186.388.556.535.416.166.979.247 1.693.247.694 0 1.249-.08 1.657-.247.378-.147.565-.326.565-.535 0-.213-.187-.39-.565-.536-.408-.16-.963-.24-1.657-.24-.714 0-1.277.08-1.693.24zm4.46-.75c.622.347.933.778.933 1.294 0 .505-.311.931-.932 1.281-.686.391-1.614.585-2.778.585-1.167 0-2.097-.194-2.785-.585-.616-.35-.922-.776-.922-1.28 0-.517.306-.948.922-1.296.688-.392 1.618-.586 2.785-.586 1.164 0 2.092.194 2.778.586zm.94-6.448v1.096h-3.031c0 .413.346.767 1.04 1.07.667.294 1.52.476 2.556.557l-.632.864c-.953-.102-1.73-.244-2.341-.438-.6-.184-1.05-.414-1.347-.693-.305.28-.767.51-1.387.693-.603.187-1.353.331-2.255.438l-.552-.87c1.037-.076 1.876-.26 2.509-.558.634-.295.949-.642.949-1.063h-2.893V8.392h7.385zm-2.878 4.23h3.472v1.073h-8.59v-1.073h3.656v-1.05h1.462v1.05zM105.565 16.54h4.681v-1.279h-4.681v1.279zm6.15-2.36v3.456h-6.41c-.403 0-.709-.1-.913-.298-.198-.191-.298-.456-.298-.785V14.18h7.621zm.438-1.087h-8.492v-1.068h6.373c.075-.279.127-.595.16-.95.035-.312.051-.663.051-1.056v-.542h-6.151V8.392h7.621v1.021c0 .445-.019.883-.059 1.319-.047.51-.11.942-.188 1.293h.685v1.068zM115.528 15.6c-.37.136-.555.313-.555.523 0 .205.185.378.555.523.42.159 1.006.239 1.749.239.734 0 1.309-.08 1.722-.239.378-.145.565-.318.565-.523 0-.21-.187-.387-.565-.523-.422-.16-.995-.237-1.722-.237-.736 0-1.32.077-1.75.237zm4.58-.751c.62.343.927.766.927 1.274 0 .507-.307.932-.927 1.276-.693.389-1.637.584-2.831.584-1.205 0-2.158-.195-2.855-.584-.623-.344-.931-.769-.931-1.276 0-.508.308-.931.93-1.274.698-.383 1.65-.576 2.856-.576 1.194 0 2.138.193 2.83.576zm.86-6.448v1.094h-3.028c0 .408.349.763 1.038 1.066.67.291 1.516.475 2.554.555l-.633.861c-.951-.1-1.728-.246-2.333-.437-.6-.183-1.05-.416-1.348-.693-.303.277-.764.51-1.384.693-.6.184-1.347.33-2.243.437l-.555-.871c1.033-.074 1.87-.259 2.502-.555.634-.288.95-.641.95-1.056H113.6V8.401h7.368zm-7.991 5.257h8.575v-1.08h-8.575v1.08zM130.672 8.204v7.191h-1.467v-.868h-1.682v-1.072h1.682v-.748h-3.2v2.143h-1.2v1.7h5.943v1.07h-6.11c-.469 0-.807-.082-1.01-.248-.196-.163-.29-.431-.29-.8v-2.155h1.2v-1.71h-2.137v-1.07h3.668c.093-.285.155-.596.19-.93.026-.283.038-.69.038-1.224h-3.51V8.4h4.954v1.375c0 .37-.02.686-.057.95-.04.31-.109.614-.199.912h1.72V8.204h1.467z" mask="url(#prefix__d)"/>
            </g>
        </g>
    </g>
</svg>
